<?xml version="1.0" encoding="utf-8"?>
<!-- Generator: Adobe Illustrator 16.0.0, SVG Export Plug-In . SVG Version: 6.00 Build 0)  -->
<!DOCTYPE svg PUBLIC "-//W3C//DTD SVG 1.1//EN" "http://www.w3.org/Graphics/SVG/1.1/DTD/svg11.dtd">
<svg version="1.1" id="Layer_1" xmlns="http://www.w3.org/2000/svg" xmlns:xlink="http://www.w3.org/1999/xlink" x="0px" y="0px"
	 width="488px" height="345px" viewBox="0 0 488 345" enable-background="new 0 0 488 345" xml:space="preserve">
<g>
	<path d="M132.09,177.488c3.686-3.814,3.596-9.9-0.209-13.646c-3.805-3.742-9.957-3.654-13.692,0.211l-2.829,2.938
		c-4.528,4.711-9.032,9.447-13.504,14.25c-4.473,4.809-8.909,9.641-13.308,14.75c-1.1,1.277-2.199,2.592-3.305,3.947l-0.833,1.047
		l-0.582,0.738c-0.241,0.309-0.475,0.627-0.712,0.961l-1.413,1.967c-0.452,0.664-0.807,1.359-1.216,2.039
		c-0.754,1.375-1.113,2.822-1.431,4.27c-0.061,0.371-0.222,0.734-0.202,1.117l0.085,1.127c0.037,0.742,0.154,1.482,0.288,2.221
		c0.036,0.371,0.178,0.738,0.309,1.104l0.385,1.098c0.294,0.729,0.669,1.441,0.999,2.164c0.353,0.715,0.787,1.41,1.177,2.115
		l0.604,1.035l0.481,0.775c1.934,3.084,3.867,5.814,5.828,8.562c1.959,2.729,3.941,5.385,5.935,8.021l4.238,5.531l15.282-11.842
		l-4.107-5.359c-1.922-2.541-3.821-5.088-5.649-7.635c-1.814-2.533-3.625-5.113-5.137-7.531l-0.17-0.271l0.867-1.09
		c0.945-1.16,1.931-2.338,2.947-3.52c4.074-4.73,8.418-9.469,12.787-14.168c4.377-4.701,8.823-9.373,13.292-14.023L132.09,177.488z"
		/>
	<path fill="#FFDA96" d="M117.623,238.033l-3.157-4.045L99.184,245.83l3.24,4.15c3.341,4.254,9.478,4.955,13.621,1.586
		C120.187,248.199,120.874,242.174,117.623,238.033"/>
	<polygon fill="#D1B293" points="96.695,242.598 95.925,241.592 111.304,229.875 112.048,230.852 	"/>
	<path d="M185.478,165.732c-1.326-1.537-3.014-2.822-4.98-3.59c-1.955-0.762-4.016-0.996-5.755-0.605
		c-0.865,0.162-1.612,0.492-2.24,0.904c-0.628,0.395-1.136,0.883-1.531,1.445c-0.792,1.105-1.1,2.365-1.117,3.699
		c0,2.664,0.828,5.123,0.674,6.955c-0.146,1.824-0.701,2.703,0.205,3.695c0.433,0.486,0.911,1.223,1.388,1.986
		c1.016,1.758,1.996,3.914,2.826,6.273c0.84,2.355,1.573,4.873,2.223,7.461c1.297,5.182,2.269,10.641,3.056,16.166
		c1.56,11.076,2.41,22.451,2.892,33.846l0.231,6.719l19.327-0.525l-0.243-6.992c-0.505-11.879-1.379-23.764-3.067-35.768
		c-0.858-6.004-1.915-12.031-3.444-18.15c-0.77-3.061-1.659-6.146-2.778-9.277c-1.113-3.129-2.484-6.326-4.392-9.609
		C187.811,168.828,186.812,167.291,185.478,165.732"/>
	<path fill="#FFDA96" d="M202.792,255.461l-0.115-5.299l-19.326,0.525l0.112,5.094c0.091,5.217,4.377,9.42,9.712,9.506
		C198.517,265.373,202.886,260.918,202.792,255.461"/>
	<polygon fill="#D1B293" points="183.226,246.75 183.182,245.529 202.5,244.795 202.547,246.064 	"/>
	<path d="M176.765,161.031c-6.37-1.418-16.202-3.141-26.431-3.143c-10.242,0-20.107,1.727-26.496,3.148
		c-4.035,0.896-7.253,5.193-7.253,9.326v67.381h67.43v-67.381C184.015,166.23,180.8,161.93,176.765,161.031"/>
	<path d="M132.469,160.113c5.671,13.004,8.239,17.611,9.812,17.611c2.086,0,6.399-5.273,8.019-7.352
		c1.622,2.078,5.936,7.352,8.022,7.352c1.553,0,4.215-4.777,9.819-17.627c0.107-0.246,0.198-0.447,0.288-0.66
		c-0.388-0.064-0.784-0.123-1.18-0.184c-0.058,0.131-0.107,0.242-0.168,0.383c-4.768,10.932-7.726,16.633-8.759,16.934
		c-1.298,0-5.204-4.383-7.561-7.494l-0.461-0.605l-0.459,0.605c-2.357,3.111-6.263,7.494-7.528,7.496
		c-1.065-0.303-4.021-5.998-8.784-16.918c-0.063-0.146-0.112-0.262-0.171-0.395c-0.398,0.061-0.794,0.121-1.183,0.182
		C132.269,159.656,132.362,159.863,132.469,160.113"/>
	<polygon points="164.269,150.242 165.312,158.973 150.3,168.471 135.29,158.979 136.333,150.242 	"/>
	<polygon fill="#F7DCC4" points="144.289,194.654 148.333,182.898 145.082,179.645 150.299,172.482 155.52,179.645 152.269,182.898 
		156.313,194.654 150.299,204.604 	"/>
	<path fill="#B05D2B" d="M155.961,208.377c0,0.916-0.742,1.662-1.661,1.662c-0.916,0-1.661-0.746-1.661-1.662s0.745-1.66,1.661-1.66
		C155.219,206.717,155.961,207.461,155.961,208.377"/>
	<path fill="#B05D2B" d="M155.961,216.32c0,0.916-0.742,1.662-1.661,1.662c-0.916,0-1.661-0.746-1.661-1.662s0.745-1.66,1.661-1.66
		C155.219,214.66,155.961,215.404,155.961,216.32"/>
	<path fill="#B05D2B" d="M155.961,224.264c0,0.918-0.742,1.662-1.661,1.662c-0.916,0-1.661-0.744-1.661-1.662
		c0-0.916,0.745-1.658,1.661-1.658C155.219,222.605,155.961,223.348,155.961,224.264"/>
	<path fill="#B05D2B" d="M150.3,231.777c-0.318,0-0.577-0.26-0.577-0.576v-26.527c0-0.32,0.259-0.578,0.577-0.578
		c0.32,0,0.579,0.258,0.579,0.578v26.527C150.879,231.518,150.62,231.777,150.3,231.777"/>
	<path fill="#534741" d="M190.833,319.613l-6.817-69.287v-12.58h-67.43l0.324,81.867l27.413,4.473l-0.063-66.357
		c-0.003-2.756,2.227-4.988,4.983-4.988h2.332c2.756,0,5.203,2.223,5.467,4.965l6.378,66.381L190.833,319.613z"/>
	<path fill="#441A12" d="M148.979,147.287c-13.454,0-18.433-5.271-18.639-5.496c-0.683-0.75-0.631-1.91,0.119-2.596
		c0.743-0.682,1.895-0.633,2.581,0.102c0.101,0.104,4.366,4.316,15.939,4.316c11.65,0,15.9-4.277,15.943-4.318
		c0.698-0.727,1.856-0.764,2.59-0.076c0.733,0.689,0.783,1.832,0.105,2.572C167.41,142.018,162.424,147.287,148.979,147.287"/>
	<polygon fill="#662C0C" points="144.323,329.211 114.329,329.211 114.329,324.201 116.909,319.613 144.323,324.086 	"/>
	<polygon fill="#662C0C" points="163.419,329.211 193.414,329.211 193.414,324.201 190.832,319.613 163.419,324.086 	"/>
	<path fill="#EBC580" d="M164.384,155.203c0,0-4.455,2.168-14.035,2.168c-9.583,0-14.141-2.184-14.141-2.184
		s7.58-1.596,14.141-1.596C156.907,153.592,164.384,155.203,164.384,155.203"/>
	<path fill="#FFDA96" d="M162.691,37.534h-24.687c-33.655,0-34.153,62.624-34.153,62.624v16.878
		c0,21.353,17.311,38.664,38.664,38.664h15.665c21.353,0,38.664-17.311,38.664-38.664v-16.81
		C196.844,100.226,196.345,37.534,162.691,37.534"/>
	<path fill="#662C0C" d="M176.4,114.649c0,2.663-2.157,4.817-4.818,4.817c-2.661,0-4.816-2.154-4.816-4.817v-2.088
		c0-2.663,2.155-4.82,4.816-4.82c2.661,0,4.818,2.157,4.818,4.82V114.649z"/>
	<path fill="#FFDA96" d="M112.698,120.634c0,4.888-3.961,8.851-8.846,8.851c-4.886,0-8.848-3.963-8.848-8.851
		c0-4.885,3.962-8.847,8.848-8.847C108.737,111.787,112.698,115.749,112.698,120.634"/>
	<path fill="#FFDA96" d="M205.69,120.634c0,4.888-3.962,8.851-8.847,8.851c-4.885,0-8.847-3.963-8.847-8.851
		c0-4.885,3.962-8.847,8.847-8.847C201.729,111.787,205.69,115.749,205.69,120.634"/>
	<path fill="#662C0C" d="M133.463,114.649c0,2.663-2.157,4.817-4.818,4.817c-2.66,0-4.816-2.154-4.816-4.817v-2.088
		c0-2.663,2.156-4.82,4.816-4.82c2.661,0,4.818,2.157,4.818,4.82V114.649z"/>
	<g opacity="0.5">
		<g>
			<defs>
				<rect id="SVGID_1_" x="111.712" y="97.869" width="32.523" height="32.1"/>
			</defs>
			<clipPath id="SVGID_2_">
				<use xlink:href="#SVGID_1_"  overflow="visible"/>
			</clipPath>
			<path clip-path="url(#SVGID_2_)" fill="#CCCCCC" d="M144.235,113.919c0,8.864-7.28,16.049-16.262,16.049
				c-8.981,0-16.261-7.185-16.261-16.049s7.28-16.049,16.261-16.049C136.956,97.87,144.235,105.055,144.235,113.919"/>
		</g>
	</g>
	<g opacity="0.5">
		<g>
			<defs>
				<rect id="SVGID_3_" x="154.702" y="97.869" width="32.523" height="32.1"/>
			</defs>
			<clipPath id="SVGID_4_">
				<use xlink:href="#SVGID_3_"  overflow="visible"/>
			</clipPath>
			<path clip-path="url(#SVGID_4_)" fill="#CCCCCC" d="M187.225,113.919c0,8.864-7.28,16.049-16.262,16.049
				c-8.981,0-16.261-7.185-16.261-16.049s7.28-16.049,16.261-16.049C179.945,97.87,187.225,105.055,187.225,113.919"/>
		</g>
	</g>
	<path fill="#CE8421" d="M226.55,57.299c-8.395,2.852-15.413-3.12-15.413-3.12c-1.174-6.885-3.735-12.062-6.47-15.844
		c-1.236-24.733-25.839-20.477-25.839-20.477c-15.181-13.881-28.267-5.67-28.267-5.67C90.92,7.073,85.466,53.414,85.466,53.414
		c-9.107,13.892-3.593,28.413-3.593,28.413C80.898,88.655,85.9,93.726,85.9,93.726c1.284,5.121,6.531,9.167,6.531,9.167
		c3.913,2.935,5.278,7.623,5.278,7.623c-1.2,5.302,3.391,7.853,3.391,7.853c1.055,0.457,3.574,3.543,3.574,3.543
		c-0.812-3.947,6.161-29.924,6.161-29.924c4.3-24.284,29.865-27.902,29.865-27.902c-3.073,5.532-5.334,10.646-6.938,15.382
		c8.79-12.506,14.341-14.426,14.341-14.426c7.986-6.95,15.352-4.862,15.352-4.862c7.75,5.409,17.657,2.441,17.657,2.441
		c-5.493,4.655-14.656,3.828-14.656,3.828c8.836,6.582,18.547,4.37,18.547,4.37c1.327,7.888-8.269,15.086-8.269,15.086
		c12.169-3.379,14.019-12.508,14.019-12.508C190.537,80.661,183,84.95,183,84.95c4.435,1.669,5.819-0.18,5.819-0.18
		c6.581,10.504,5.314,27.583,5.314,27.583c-1.645,8.846,1.375,5.132,1.375,5.132c1.084-2.561,10.055-11.475,10.055-11.475
		c14.852-15.052,10.053-42.426,10.053-42.426C224.426,62.691,226.55,57.299,226.55,57.299 M195.149,29.639
		c6.003,1.689,8.428,6.301,9.223,8.313C199.932,31.993,195.149,29.639,195.149,29.639"/>
	<path fill="#F7B261" d="M226.55,57.299c-8.395,2.852-15.413-3.12-15.413-3.12c-1.187-6.874-3.745-12.056-6.474-15.838
		c-1.201-24.751-25.835-20.483-25.835-20.483c-15.205-13.879-28.267-5.67-28.267-5.67C90.92,7.073,85.466,53.414,85.466,53.414
		c-0.328,0.494-0.654,1.008-0.935,1.5c4.648-2.825,10.061-6.716,10.705-9.712c1.13-5.321,11.645-17.325,21.079-16.517
		c0,0-11.841,7.85-14.223,20.264c0,0,17.999-17.054,35.621-15.099c0,0-15.884,4.41-23.675,15.475c0,0,11.054-8.06,17.607-5.05
		c0,0,15.3,8.367,25.796-3.881c0,0,4.483-11.315,18.033-6.066c0,0,4.85-6.599-9.723-15.266c0,0,10.898,3.453,15.258,14.612
		c0,0-2.555-7.308-7.993-12.393c0,0,8.21,5.124,9.753,12.266c0,0,2.201-4.661-3.437-12.234c0,0,10.983,11.432,4.322,20.892
		c0,0,4.128-2.539,4.67-9.065c0,0,8.898,14.561-9.765,25.933c0,0,5.734-1.047,9.901-4.89c-1.158-0.315-1.959-0.705-1.959-0.705
		c1.031,0.129,1.915,0.107,2.68,0.005c1.938-2.047,3.415-4.793,3.557-8.43c0,0,2.779,7.561-3.557,8.43
		c-0.232,0.241-0.464,0.48-0.721,0.7c2.524,0.688,6.751,1.051,7.97-3.672c0,0,5.491,5.842-2.448,14.904
		c0,0,8.649,0.618,11.504-5.316c0,0,5.3,1.064,10.185,23.443c1.577-10.703-0.056-19.958-0.056-19.958
		C224.426,62.691,226.55,57.299,226.55,57.299 M195.149,29.639c5.935,1.669,8.378,6.209,9.185,8.255
		C199.906,31.975,195.149,29.639,195.149,29.639"/>
	<path fill="#754C24" d="M190.531,109.949c-1.241,0.049-2.698,0.355-2.96-0.586c-0.261-0.942-1.571-5.909-4.454-8.253
		c-2.885-2.345-5.724-4.218-10.528-4.795c-3.129,0.058-8.186,0.253-12.029,3.658c-3.843,3.405-5.414,6.329-6.429,9.547l-4.03,0.021
		l-1.372,0.006l-4.029,0.02c-1.044-3.21-2.644-6.119-6.518-9.489c-3.875-3.367-8.934-3.515-12.065-3.543
		c-4.799,0.624-7.619,2.523-10.48,4.895c-2.861,2.372-4.124,7.351-4.376,8.295c-0.253,0.944-7.597,0.651-8.84,0.615
		c-1.243-0.038-1.456,0.392-1.456,0.392l0.019,4.173c0,0,7.429,0.107,8.517,0.444c1.088,0.339,1.261,0.623,1.321,1.309
		c1.504,3.651,2.774,6.16,5.419,9.634c5.744,5.745,14.374,5.421,19.108,3.339c4.735-2.079,5.78-4.614,7.526-7.066
		c1.747-2.452,2.281-7.471,2.446-8.543c0.167-1.072,1.279-1.378,1.279-1.378l2.144-0.011l1.372-0.006l2.144-0.011
		c0,0,1.116,0.297,1.293,1.368c0.176,1.069,0.757,6.082,2.526,8.517c1.77,2.437,2.839,4.96,7.594,6.995
		c4.754,2.037,13.387,2.281,19.075-3.521c2.613-3.499,3.859-6.02,5.328-9.684c0.053-0.687,0.224-0.974,1.308-1.321
		c1.085-0.35,7.605-0.47,7.605-0.47l-0.02-4.175C196.969,110.326,191.775,109.9,190.531,109.949 M128.099,129.443
		c-8.656,0.041-15.707-6.943-15.748-15.601c-0.041-8.657,6.943-15.707,15.599-15.75c8.657-0.04,15.708,6.944,15.749,15.602
		C143.74,122.351,136.756,129.402,128.099,129.443 M171.018,129.238c-8.657,0.043-15.708-6.942-15.749-15.601
		c-0.041-8.655,6.944-15.707,15.599-15.747c8.657-0.041,15.709,6.943,15.75,15.599C186.659,122.147,179.674,129.197,171.018,129.238
		"/>
	<path fill="#441A12" d="M148.979,149.547c-13.455,0-18.434-5.273-18.64-5.498c-0.683-0.748-0.631-1.91,0.119-2.596
		c0.743-0.682,1.895-0.633,2.581,0.102c0.101,0.104,4.366,4.316,15.939,4.316c11.65,0,15.9-4.275,15.943-4.318
		c0.697-0.727,1.855-0.764,2.59-0.074c0.732,0.689,0.783,1.83,0.105,2.572C167.41,144.275,162.424,149.547,148.979,149.547"/>
</g>
<g>
	<path fill="#6B2E55" d="M351.171,168.983c-3.73-3.738-9.772-3.731-13.451,0.009c-3.677,3.738-3.668,9.718,0.009,13.405l1.933,1.94
		c4.751,4.78,9.473,9.587,14.12,14.426c4.635,4.834,9.258,9.717,13.55,14.594c1.054,1.213,2.11,2.434,3.058,3.605l0.142,0.172
		l-1.041,1.562c-3.555,5.148-7.708,10.453-11.851,15.648l-4.942,6.098l14.686,12.039l5.083-6.273
		c4.309-5.412,8.545-10.783,12.7-16.799l0.782-1.152l0.993-1.531c0.867-1.436,1.76-2.891,2.438-4.393
		c0.4-0.742,0.613-1.506,0.894-2.268c0.192-0.764,0.316-1.529,0.397-2.297l0.1-1.16l0.047-0.594c0.01-0.197-0.073-0.387-0.106-0.58
		c-0.188-0.781-0.326-1.506-0.539-2.258l-0.386-1.107c-0.129-0.371-0.231-0.746-0.473-1.094c-0.425-0.705-0.807-1.426-1.267-2.121
		l-1.489-2.041c-0.247-0.342-0.499-0.674-0.76-1l-0.667-0.822c-1.186-1.465-2.351-2.807-3.522-4.153
		c-4.67-5.308-9.38-10.275-14.132-15.233c-4.749-4.943-9.534-9.814-14.347-14.655L351.171,168.983z"/>
	<polygon fill="#9E6C8F" points="352.696,240.443 355.918,236.486 370.69,248.418 367.382,252.482 	"/>
	<path fill="#6B2E55" d="M300.59,182.383c3.691-3.675,3.721-9.656,0.054-13.406c-3.666-3.75-9.709-3.779-13.451-0.054l-1.963,1.96
		c-4.801,4.795-9.574,9.622-14.315,14.518c-4.743,4.904-9.446,9.829-14.111,15.061c-1.168,1.313-2.334,2.652-3.511,4.066
		l-1.125,1.377c-0.512,0.641-1.001,1.338-1.505,2.002l-0.747,1.01l-0.635,1.053c-0.418,0.703-0.882,1.396-1.081,2.143l-0.396,1.102
		l-0.267,1.113c-0.146,0.742-0.464,1.518-0.317,2.307c0.105,1.539,0.261,3.072,0.889,4.588c0.607,1.51,1.364,3,2.223,4.447
		c0.207,0.369,0.413,0.734,0.629,1.082l0.521,0.836l0.754,1.182c4.005,6.111,8.095,11.529,12.259,17.012l4.942,6.387l14.951-11.709
		l-4.805-6.209c-3.999-5.252-8.022-10.625-11.406-15.803l-0.761-1.193l0.485-0.59c0.98-1.176,2.026-2.383,3.098-3.59
		c4.312-4.836,8.923-9.672,13.557-14.461c4.643-4.794,9.354-9.557,14.094-14.296L300.59,182.383z"/>
	<polygon fill="#9E6C8F" points="269.437,252.166 266.22,248.025 281.256,236.428 284.388,240.457 	"/>
	<path fill="#5B234A" d="M344.706,165.934c-6.259-1.395-15.915-3.084-25.964-3.086c-10.06,0-19.749,1.694-26.025,3.092
		c-3.963,0.88-7.123,5.101-7.123,9.159v66.188h66.233v-66.188C351.827,171.04,348.668,166.817,344.706,165.934"/>
	<path fill="#FFDA96" d="M337.961,164.604c-5.566-0.954-12.3-1.754-19.219-1.756c-6.937,0-13.695,0.804-19.282,1.764l18.545,23.653
		h1.409L337.961,164.604z"/>
	<path fill="#FFDA96" d="M332.431,156.562l1.024,7.352c0,0-6.308,7.628-14.744,7.628c-8.433,0-14.746-7.623-14.746-7.623
		l1.025-7.356H332.431z"/>
	<polygon fill="#9E6C8F" points="301.807,175.757 295.047,183.896 289.507,175.757 296.271,167.62 	"/>
	<polygon fill="#9E6C8F" points="347.913,175.757 342.376,183.896 335.611,175.757 341.149,167.62 	"/>
	<polygon fill="#9E6C8F" points="317.583,194.426 310.823,202.562 304.059,194.426 309.599,186.291 	"/>
	<polygon fill="#9E6C8F" points="301.807,194.426 295.047,202.562 289.507,194.426 295.047,186.291 	"/>
	<polygon fill="#9E6C8F" points="333.361,194.426 326.599,202.562 319.834,194.426 327.824,186.291 	"/>
	<polygon fill="#9E6C8F" points="347.913,194.426 342.376,202.562 335.611,194.426 342.376,186.291 	"/>
	<polygon fill="#9E6C8F" points="317.583,213.098 310.823,221.232 304.059,213.098 310.823,204.959 	"/>
	<polygon fill="#9E6C8F" points="301.807,213.098 295.047,221.232 289.507,213.098 295.047,204.959 	"/>
	<polygon fill="#9E6C8F" points="333.361,213.098 326.599,221.232 319.834,213.098 326.599,204.959 	"/>
	<polygon fill="#9E6C8F" points="347.913,213.098 342.376,221.232 335.611,213.098 342.376,204.959 	"/>
	<polygon fill="#9E6C8F" points="317.583,231.768 310.823,239.904 304.059,231.768 310.823,223.629 	"/>
	<polygon fill="#9E6C8F" points="301.807,231.768 295.047,239.904 289.507,231.768 295.047,223.629 	"/>
	<polygon fill="#9E6C8F" points="333.361,231.768 326.599,239.904 319.834,231.768 326.599,223.629 	"/>
	<polygon fill="#9E6C8F" points="347.913,231.768 342.376,239.904 335.611,231.768 342.376,223.629 	"/>
	<path fill="#1D9DAA" d="M357.298,321.703l-5.471-80.416h-66.233l-4.583,80.416l26.927,4.395l4.09-65.193
		c0.169-2.701,2.5-4.891,5.206-4.891h3.757c2.706,0,5.04,2.189,5.213,4.891l4.168,65.193L357.298,321.703z"/>
	<path fill="#FFDA96" d="M366.462,253.602l0.92-1.119l-14.686-12.039l-0.896,1.092c-3.286,3.996-2.741,9.93,1.253,13.328
		C357.048,258.262,363.088,257.707,366.462,253.602"/>
	<path fill="#FFDA96" d="M285.259,241.566l-0.871-1.109l-14.951,11.709l0.893,1.137c3.282,4.178,9.309,4.867,13.38,1.561
		C287.778,251.555,288.454,245.635,285.259,241.566"/>
	<polygon fill="#77380E" points="307.938,331.129 278.477,331.129 278.477,326.209 281.01,321.703 307.938,326.098 	"/>
	<polygon fill="#77380E" points="330.372,331.129 359.833,331.129 359.833,326.209 357.299,321.703 330.372,326.098 	"/>
	<path fill="#EBC580" d="M332.416,160.209c0,0-4.376,2.129-13.787,2.129s-13.89-2.146-13.89-2.146s7.447-1.564,13.89-1.564
		S332.416,160.209,332.416,160.209"/>
	<path fill="#FFDA96" d="M281.647,115.001c0,6.096-3.891,11.037-8.689,11.037c-4.8,0-8.691-4.941-8.691-11.037
		c0-6.095,3.891-11.036,8.691-11.036C277.756,103.965,281.647,108.906,281.647,115.001"/>
	<path fill="#FFDA96" d="M372.99,115.001c0,6.096-3.891,11.037-8.69,11.037c-4.798,0-8.689-4.941-8.689-11.037
		c0-6.095,3.892-11.036,8.689-11.036C369.1,103.965,372.99,108.906,372.99,115.001"/>
	<path fill="#FFDA96" d="M363.714,83.229c0-20.976-17.003-37.98-37.979-37.98h-15.387c-20.973,0-37.979,17.004-37.979,37.98v40.113
		c0,20.974,17.006,37.98,37.979,37.98h15.387c20.976,0,37.979-17.006,37.979-37.98V83.229z"/>
	<path fill="#441A12" d="M300.202,126.581c-1.016,0-1.839-0.822-1.839-1.838v-2.052c0-1.597-1.298-2.897-2.895-2.897
		c-1.595,0-2.892,1.3-2.892,2.897v2.052c0,1.016-0.823,1.838-1.838,1.838c-1.015,0-1.838-0.822-1.838-1.838v-2.052
		c0-3.623,2.947-6.571,6.568-6.571c3.624,0,6.57,2.948,6.57,6.571v2.052C302.038,125.759,301.217,126.581,300.202,126.581"/>
	<path fill="#441A12" d="M346.683,126.581c-1.016,0-1.839-0.822-1.839-1.838v-2.052c0-1.597-1.298-2.897-2.895-2.897
		s-2.896,1.3-2.896,2.897v2.052c0,1.016-0.822,1.838-1.838,1.838c-1.015,0-1.837-0.822-1.837-1.838v-2.052
		c0-3.623,2.947-6.571,6.57-6.571c3.624,0,6.571,2.948,6.571,6.571v2.052C348.521,125.759,347.697,126.581,346.683,126.581"/>
	<g opacity="0.5">
		<g>
			<defs>
				<rect id="SVGID_5_" x="275.354" y="107.818" width="87.346" height="32.054"/>
			</defs>
			<clipPath id="SVGID_6_">
				<use xlink:href="#SVGID_5_"  overflow="visible"/>
			</clipPath>
			<path clip-path="url(#SVGID_6_)" fill="#CCCCCC" d="M276.734,107.818l17.926,0.625l23.138,2.918l12.921-2.293l8.964-0.833
				l20.843-0.417l2.084,7.712c0,0,1.876,21.051-11.464,23.344c-13.339,2.294-22.303-2.292-28.555-19.801
				c-6.255-17.509-7.088-3.96-7.088-3.96s-4.585,27.097-20.843,24.596C278.402,137.207,272.357,130.121,276.734,107.818"/>
		</g>
	</g>
	<g opacity="0.5">
		<g>
			<defs>
				<rect id="SVGID_7_" x="283.248" y="107.714" width="12.976" height="31.421"/>
			</defs>
			<clipPath id="SVGID_8_">
				<use xlink:href="#SVGID_7_"  overflow="visible"/>
			</clipPath>
			<polygon clip-path="url(#SVGID_8_)" fill="#E6E6E6" points="283.248,108.964 290.596,138.354 296.224,139.135 286.375,107.714 
							"/>
		</g>
	</g>
	<g opacity="0.5">
		<g>
			<defs>
				<rect id="SVGID_9_" x="351.453" y="107.69" width="10.456" height="27.018"/>
			</defs>
			<clipPath id="SVGID_10_">
				<use xlink:href="#SVGID_9_"  overflow="visible"/>
			</clipPath>
			<path clip-path="url(#SVGID_10_)" fill="#E6E6E6" d="M358.905,133.532c0.885-1.444,1.864-2.817,3.004-4.085l-6.819-21.758h-3.637
				l6.755,27.019C358.273,134.26,358.511,133.838,358.905,133.532"/>
		</g>
	</g>
	<g opacity="0.5">
		<g>
			<defs>
				<rect id="SVGID_11_" x="329.312" y="108.755" width="12.976" height="31.422"/>
			</defs>
			<clipPath id="SVGID_12_">
				<use xlink:href="#SVGID_11_"  overflow="visible"/>
			</clipPath>
			<polygon clip-path="url(#SVGID_12_)" fill="#E6E6E6" points="329.312,110.006 336.66,139.395 342.288,140.177 332.439,108.755 
							"/>
		</g>
	</g>
	<g opacity="0.5">
		<g>
			<defs>
				<rect id="SVGID_13_" x="278.229" y="110.163" width="8.469" height="28.34"/>
			</defs>
			<clipPath id="SVGID_14_">
				<use xlink:href="#SVGID_13_"  overflow="visible"/>
			</clipPath>
			<path clip-path="url(#SVGID_14_)" fill="#E6E6E6" d="M285.225,137.47c0.488,0.351,0.978,0.696,1.473,1.033l-7.222-28.34
				l-1.247,1.398l5.776,25.625C284.378,137.099,284.798,137.163,285.225,137.47"/>
		</g>
	</g>
	<g opacity="0.5">
		<g>
			<defs>
				<rect id="SVGID_15_" x="300.276" y="108.836" width="8.106" height="25.74"/>
			</defs>
			<clipPath id="SVGID_16_">
				<use xlink:href="#SVGID_15_"  overflow="visible"/>
			</clipPath>
			<path clip-path="url(#SVGID_16_)" fill="#E6E6E6" d="M307.11,134.031c0.259,0.186,0.52,0.363,0.779,0.545
				c0.146-0.127,0.313-0.228,0.493-0.305l-6.482-25.436h-1.624l5.615,24.91C306.264,133.658,306.684,133.724,307.11,134.031"/>
		</g>
	</g>
	<g opacity="0.5">
		<g>
			<defs>
				<rect id="SVGID_17_" x="325.705" y="111.546" width="8.106" height="25.741"/>
			</defs>
			<clipPath id="SVGID_18_">
				<use xlink:href="#SVGID_17_"  overflow="visible"/>
			</clipPath>
			<path clip-path="url(#SVGID_18_)" fill="#E6E6E6" d="M332.539,136.74c0.259,0.187,0.521,0.365,0.779,0.547
				c0.146-0.128,0.312-0.229,0.491-0.306l-6.48-25.436h-1.624l5.615,24.912C331.693,136.369,332.112,136.434,332.539,136.74"/>
		</g>
	</g>
	<g opacity="0.5">
		<g>
			<defs>
				<rect id="SVGID_19_" x="303.346" y="108.982" width="8.986" height="23.125"/>
			</defs>
			<clipPath id="SVGID_20_">
				<use xlink:href="#SVGID_19_"  overflow="visible"/>
			</clipPath>
			<path clip-path="url(#SVGID_20_)" fill="#E6E6E6" d="M312.223,126.008c0.034-0.045,0.073-0.078,0.109-0.117l-4.985-15.903
				c-0.875-0.229-1.747-0.586-2.626-0.901c-0.081-0.029-0.148-0.069-0.221-0.105c-0.386,0.063-0.771,0.102-1.154,0.127l5.75,22.999
				C309.842,129.91,310.858,127.786,312.223,126.008"/>
		</g>
	</g>
	<path fill="#603813" d="M379.847,71.038c0.776-3.732-1.419-5.952-3.156-9.844c-1.738-3.875-2.195-9.159-2.516-11.238
		c-0.321-2.076-2.036-3.589-3.454-3.589s-3.773,1.795-6.29-2.218c-2.517-4.036-7.87-4.036-7.87-4.036
		c-1.257-8.875-8.806-7.908-8.806-7.908c0.64-4.983-1.099-8.029-1.099-8.029c-2.836,2.621-8.646,1.513-8.646,1.513
		c2.035-3.188,0.456-6.517,0.456-6.517c-1.713,4.299-9.583,6.657-9.583,6.657c0.8-1.109,0.318-4.013,0.318-4.013
		c-1.098,3.187-6.289,3.873-6.289,3.873c0.78-4.579,5.033-6.94,5.033-6.94c-3.453,0.99-11.005,7.08-11.005,7.08
		c2.815-5.002,11.781-9.701,11.781-9.701c-7.548,1.249-13.678,7.199-13.678,7.199c-0.319-4.295,6.932-9.278,6.932-9.278
		c-3.615,0.545-7.55,3.873-7.55,3.873c2.813-4.014,7.55-6.657,7.55-6.657c-5.835,2.077-18.255,9.985-18.255,9.985
		c4.713-6.092,9.904-9.158,9.904-9.158c-3.681,0.786-7.138,3.086-9.241,4.741c2.654-3.549-0.023-8.472-0.023-8.472
		c0.938,3.186-2.835,6.233-2.835,6.233s-0.803,4.013,0-0.545c0.776-4.579-1.74-8.877-1.74-8.877
		c1.899,9.986-8.005,19.689-8.005,19.689c2.036-3.611,0.937-8.331,0.937-8.331c-0.479,1.956-2.356,7.504-5.514,10.954
		c-3.133,3.469-3.451,12.344-3.451,12.344c-2.838-6.372,1.097-11.638,1.097-11.638c-7.71,3.873-5.033,11.923-5.033,11.923
		c-2.837-4.578-0.159-10.813-0.159-10.813c-4.712,2.218-5.192,12.346-5.192,12.346c-4.553-0.14-8.944,5.407-11.004,8.452
		c-2.035,3.046-4.871,3.754-4.871,3.754c3.293,0.685,2.356,4.296,2.356,4.296c-7.229,2.764-6.292,8.45-6.292,8.45
		c0-2.902,3.455-4.436,3.455-4.436c-2.333,2.079-1.968,5.285-1.099,7.827c-0.503-3.027,1.58-4.619,1.58-4.619
		c0.159,1.228-0.458,3.349-1.306,5.365c0.024,0.04,0.024,0.082,0.047,0.121c-0.047,0-0.068,0-0.115,0.019
		c-0.96,2.16-2.218,4.179-3.179,4.744c-1.898,1.108-1.417,1.672-1.417,2.5c0,0.827-1.099,2.219-1.099,2.219
		c4.072,0.604,5.283-0.101,5.65-0.543c-1.03,2.66,3.613,10.044,3.613,15.249c0,5.407,2.837,3.59,4.416,7.343
		c1.556,3.753,1.098,2.925,5.032,9.845c3.933,6.94,3.293,9.703,3.293,9.703c2.037,4.317,1.899-20.234,1.258-23.421
		c-0.618-3.207,0.162-7.503,2.356-9.44c2.196-1.937,2.837-7.082,3.158-10.39c0.319-3.35,2.356-4.317,2.812-8.755
		c0.481-4.438,3.157-3.731,4.576-5.952c1.418-2.217,1.577-2.077,7.067,0.142c5.514,2.219,8.188,0.686,11.804-0.142
		c3.615-0.846,6.749-3.328,11.804-0.846c5.009,2.5,8.004-0.969,10.683-0.969c2.676,0,11.94,5.547,14.936,7.223
		c2.999,1.653,6.291,2.623,11.324,2.358c5.031-0.28,2.675,7.062,4.574,9.28c1.876,2.22,1.259,8.876,1.259,12.771
		c0,3.872,0.937,7.202,1.716,10.954c0.8,3.753,1.417,7.765,1.096,10.531c-0.296,2.783-0.455,6.254,0.162,4.721
		c0.639-1.513,3.772-4.299,4.712-6.094c0.936-1.816,4.575-6.374,5.512-8.875c0.938-2.502,1.737-7.082,1.737-7.082
		s3.775-5.547,3.936-11.095C380.145,81.306,379.046,74.791,379.847,71.038"/>
	<path fill="#603813" d="M257.012,69.988c0.045,0.283,0.115,0.565,0.206,0.887c0.024-0.059,0.047-0.1,0.068-0.14
		C257.196,70.493,257.103,70.251,257.012,69.988"/>
	<g opacity="0.1">
		<g>
			<defs>
				<rect id="SVGID_21_" x="266.619" y="53.281" width="19.17" height="23.87"/>
			</defs>
			<clipPath id="SVGID_22_">
				<use xlink:href="#SVGID_21_"  overflow="visible"/>
			</clipPath>
			<path clip-path="url(#SVGID_22_)" fill="#FFFFFF" d="M271.331,53.285c0,0-3.156,0.282-3.477,4.034c0,0,2.379-2.077,4.896-0.421
				c0,0-4.575,0.824-6.131,4.861c0,0,2.196-1.535,5.033-0.142c0,0-3.317,0.685-3.317,5.547c0,0,2.059-2.079,4.415-1.957
				c0,0-2.677,3.209-1.257,5.69c0,0,1.097,3.328-0.802,6.254c0,0,5.032-3.753,5.032-5.55c0,0,4.576-5.263,10.065-6.516
				c0,0-4.231,0.122-7.708,1.656c0,0,0.96-3.731,3.316-4.841c0,0-3.773-0.426-5.512,1.372c0,0-1.418-1.655,0.938-2.361
				c0,0-2.196-0.687-2.972,0.141c0,0-0.162-2.904,2.972-1.654c0,0-0.777-1.676-3.752-1.109c0,0,0.457-2.361,2.196-2.079
				C275.265,56.21,274.785,53.144,271.331,53.285"/>
		</g>
	</g>
	<g opacity="0.1">
		<g>
			<defs>
				<rect id="SVGID_23_" x="285.994" y="5.172" width="73.13" height="55.336"/>
			</defs>
			<clipPath id="SVGID_24_">
				<use xlink:href="#SVGID_23_"  overflow="visible"/>
			</clipPath>
			<path clip-path="url(#SVGID_24_)" fill="#FFFFFF" d="M338.674,60.508c0,0,13.038-0.424,17.613-8.474c0,0,2.516-5.002,2.837-11.54
				c-1.441-0.382-2.519-0.382-2.519-0.382c-1.257-8.875-8.806-7.907-8.806-7.907c0.616-4.984-1.099-8.03-1.099-8.03
				c-2.834,2.621-8.669,1.513-8.669,1.513c2.061-3.187,0.481-6.516,0.481-6.516c-1.716,4.298-9.584,6.656-9.584,6.656
				c0.777-1.109,0.298-4.013,0.298-4.013c-1.099,3.188-6.291,3.873-6.291,3.873c0.801-4.579,5.032-6.94,5.032-6.94
				c-3.455,0.99-11.003,7.08-11.003,7.08c2.836-5.001,11.803-9.7,11.803-9.7c-7.546,1.249-13.68,7.199-13.68,7.199
				c-0.32-4.296,6.909-9.279,6.909-9.279c-3.613,0.545-7.55,3.873-7.55,3.873c2.838-4.014,7.55-6.657,7.55-6.657
				c-5.812,2.077-18.23,9.986-18.23,9.986c4.712-6.093,9.903-9.159,9.903-9.159c-3.704,0.787-7.158,3.086-9.241,4.742
				c2.632-3.55-0.045-8.473-0.045-8.473c0.937,3.186-2.836,6.233-2.836,6.233s-0.776,4.013,0-0.545
				c0.801-4.579-1.716-8.877-1.716-8.877c1.876,9.986-8.029,19.689-8.029,19.689c2.035-3.61,0.938-8.331,0.938-8.331
				c-0.459,1.956-2.357,7.504-5.49,10.955c-0.479,0.543-0.914,1.21-1.258,1.936c0.023,2.824,0.205,7.364,0.937,8.755
				c0,0,0.321-4.72,2.037-6.113c0,0-1.716,2.926,0.319,6.113c0,0,2.037-5.003,4.415-6.253c0,0-1.898,4.72-0.64,6.94
				c0,0,1.877-5.953,5.97-7.345c0,0-1.257,1.796-0.616,3.188c0,0,5.65-5.689,9.423-7.484c0,0-9.904,9.161-8.485,13.032
				c0,0,6.29-10.126,13.518-12.487c0,0-1.876,9.301-7.846,13.314c0,0,5.192-2.501,12.102-0.827c0,0-1.259,4.579-6.91,7.082
				c0,0,5.332,0.26,7.228-1.393c0,0,0.781,2.36-3.611,4.861c0,0,8.006,1.373,12.877-4.437c0,0,3.478-2.785,4.576-6.538
				c0,0,2.972,6.538-0.939,11.52c0,0,10.066-0.685,11.164-8.875c0,0,1.259,5.122-2.356,10.268c0,0,5.811,1.25,8.484-2.926
				C347.639,49.815,343.545,57.318,338.674,60.508"/>
		</g>
	</g>
	<path fill="#47163A" d="M364.883,105.83c0,0-1.897-0.339-21.425,0.95c-16.367,1.08-22.61,1.23-24.203,1.25
		c-1.593-0.02-7.837-0.17-24.203-1.25c-19.527-1.289-21.425-0.95-21.425-0.95s-0.543,6.713,0,7.729
		c0.542,1.018,0.882,8.747,1.288,11.458c0.407,2.713,1.288,7.798,4.203,10.713c2.916,2.916,7.527,4.813,12.611,5.356
		c6.984,0.339,9.154-0.051,14.289-3.103c5.137-3.051,8.458-12.322,9.002-14.017c0.541-1.695,1.32-4.373,1.863-5.289
		c0.456-0.741,1.288-0.96,1.928-1.009v0.026c0,0,0.177-0.029,0.443-0.036c0.268,0.007,0.442,0.036,0.442,0.036v-0.026
		c0.641,0.049,1.472,0.268,1.929,1.009c0.543,0.916,1.321,3.594,1.865,5.289c0.542,1.695,3.863,10.966,9.001,14.017
		c5.135,3.052,7.305,3.441,14.288,3.103c5.084-0.543,9.695-2.44,12.609-5.356c2.917-2.915,3.799-8,4.205-10.713
		c0.406-2.711,0.746-10.44,1.288-11.458C365.425,112.543,364.883,105.83,364.883,105.83 M312.342,119.662
		c-0.475,2.44-1.425,10.305-6.239,14.441c-2.373,2.102-5.191,4.339-10.494,4.475c-3.812,0.068-11.473-0.881-14.388-4.609
		c-1.356-2.104-3.391-4.431-3.458-10.25c-0.068-5.82-0.075-10.445,1.016-11.584c0,0,1.9-2.373,4.001-2.847
		c2.102-0.474,8.068-0.814,14.034,0.407c5.968,1.22,11.662,3.119,13.155,4.407C311.46,115.39,312.815,117.221,312.342,119.662
		 M360.747,123.719c-0.068,5.819-2.102,8.146-3.459,10.25c-2.914,3.729-10.576,4.678-14.387,4.609
		c-5.304-0.136-8.122-2.373-10.496-4.475c-4.813-4.137-5.762-12.001-6.236-14.441c-0.475-2.441,0.88-4.272,2.373-5.56
		c1.49-1.288,7.186-3.187,13.153-4.407c5.965-1.221,11.933-0.881,14.035-0.407c2.101,0.474,3.999,2.847,3.999,2.847
		C360.821,113.274,360.815,117.899,360.747,123.719"/>
	<path fill="#441A12" d="M317.585,154.206c-13.455,0-18.434-5.272-18.64-5.497c-0.683-0.749-0.631-1.91,0.119-2.596
		c0.743-0.682,1.895-0.633,2.581,0.102c0.101,0.104,4.366,4.316,15.939,4.316c11.65,0,15.9-4.276,15.943-4.318
		c0.697-0.727,1.855-0.764,2.59-0.075c0.732,0.689,0.783,1.831,0.105,2.572C336.017,148.936,331.03,154.206,317.585,154.206"/>
</g>
<g>
	<path fill="#EBC98A" d="M199.472,122.565c0,4.901-3.973,8.873-8.872,8.873s-8.871-3.972-8.871-8.873c0-4.9,3.972-8.872,8.871-8.872
		S199.472,117.665,199.472,122.565"/>
	<path fill="#EBC98A" d="M292.713,122.565c0,4.901-3.972,8.873-8.869,8.873c-4.899,0-8.871-3.972-8.871-8.873
		c0-4.9,3.972-8.872,8.871-8.872C288.741,113.693,292.713,117.665,292.713,122.565"/>
	<path fill="#F15A24" d="M263.841,172.164c-6.39-1.424-16.245-3.147-26.504-3.15c-10.27,0-20.159,1.729-26.566,3.156
		c-4.046,0.898-7.271,5.207-7.271,9.35v67.565h67.61V181.52C271.109,177.377,267.886,173.065,263.841,172.164"/>
	<path fill="#EBC98A" d="M251.311,162.597l1.046,9.089c0,0-2.626,9.954-15.053,9.954c-12.431,0-15.053-9.954-15.053-9.954
		l1.048-9.089H251.311z"/>
	<path fill="#405256" d="M203.499,249.085l0.325,82.089l27.485,4.484l-0.068-66.537c0-2.763,2.24-5.002,5.002-5.002h2.14
		c2.762,0,5.003,2.239,5.003,5.002l0.023,66.537l27.485-4.484l0.216-82.089H203.499z"/>
	<polygon fill="#A58A47" points="231.311,340.795 201.234,340.795 201.234,335.773 203.824,331.174 231.311,335.658 	"/>
	<polygon fill="#A58A47" points="243.409,340.795 273.483,340.795 273.483,335.773 270.896,331.174 243.409,335.658 	"/>
	<path fill="#D1AF72" d="M251.296,166.319c0,0-4.468,2.174-14.074,2.174s-14.18-2.191-14.18-2.191s7.602-1.597,14.18-1.597
		S251.296,166.319,251.296,166.319"/>
	<path fill="#EBC98A" d="M249.599,53.334h-24.754c-41.959,6.413-34.245,57.791-34.245,57.791l4.062,17.51
		c0,21.412,23.763,37.831,34.708,38.182h15.705c11.493-1.288,34.628-17.082,34.628-38.494l2.504-19.697
		C282.206,108.625,283.343,53.334,249.599,53.334"/>
	<path fill="#A17650" d="M237.026,106.827c0,0-27.879-3.517-38.3,3.778c0,0-8.546,15.216,2.084,27.096c0,0,6.879,5.211,12.923,3.961
		c6.045-1.251,13.341-3.127,20.844-23.97l4.585-2.084c0,0,6.045,24.594,20.011,26.054c0,0,13.756,1.876,18.133-11.672
		c0,0,6.046-20.844-13.34-22.929L237.026,106.827z"/>
	<g opacity="0.5">
		<g>
			<defs>
				<rect id="SVGID_25_" x="200.863" y="109.251" width="12.976" height="32.672"/>
			</defs>
			<clipPath id="SVGID_26_">
				<use xlink:href="#SVGID_25_"  overflow="visible"/>
			</clipPath>
			<polygon clip-path="url(#SVGID_26_)" fill="#E6E6E6" points="200.863,110.551 209.981,141.766 213.839,141.923 203.99,109.251 
							"/>
		</g>
	</g>
	<g opacity="0.5">
		<g>
			<defs>
				<rect id="SVGID_27_" x="247.656" y="106.905" width="13.394" height="34.548"/>
			</defs>
			<clipPath id="SVGID_28_">
				<use xlink:href="#SVGID_27_"  overflow="visible"/>
			</clipPath>
			<polygon clip-path="url(#SVGID_28_)" fill="#E6E6E6" points="247.656,107.218 257.401,141.245 261.05,141.453 251.201,106.905 
							"/>
		</g>
	</g>
	<g opacity="0.5">
		<g>
			<defs>
				<rect id="SVGID_29_" x="195.575" y="111.283" width="11.022" height="29.915"/>
			</defs>
			<clipPath id="SVGID_30_">
				<use xlink:href="#SVGID_29_"  overflow="visible"/>
			</clipPath>
			<path clip-path="url(#SVGID_30_)" fill="#E6E6E6" d="M197.581,111.283l-0.007,0.002c0.077,1.421-0.941,2.436-1.612,3.747
				c-0.108,0.211-0.241,0.372-0.387,0.503v1.713l5.965,21.392c1.264,0.584,1.365,1.054,2.654,1.618
				c0.79,0.345,1.599,0.638,2.403,0.939L197.581,111.283z"/>
		</g>
	</g>
	<g opacity="0.5">
		<g>
			<defs>
				<rect id="SVGID_31_" x="240.231" y="107.453" width="12.818" height="31.657"/>
			</defs>
			<clipPath id="SVGID_32_">
				<use xlink:href="#SVGID_31_"  overflow="visible"/>
			</clipPath>
			<polygon clip-path="url(#SVGID_32_)" fill="#E6E6E6" points="240.231,108.625 249.532,137.232 253.05,139.109 243.904,107.453 
							"/>
		</g>
	</g>
	<rect x="234.577" y="113.94" fill="#F9DDAF" width="4.794" height="30.223"/>
	<path fill="#A17650" d="M221.622,155.756c0.219,0.066,4.554,1.33,15.681,1.33c11.121,0,15.461-1.264,15.681-1.328
		c0.991-0.299,1.554-1.345,1.256-2.338c-0.298-0.991-1.344-1.555-2.335-1.256l0.212,0.711l-0.205-0.713l-0.007,0.002l0.212,0.711
		l-0.205-0.713c-0.045,0.013-4.11,1.174-14.608,1.172c-5.421,0-9.126-0.308-11.45-0.608c-1.159-0.151-1.975-0.3-2.485-0.406
		c-0.257-0.053-0.436-0.096-0.545-0.123l-0.109-0.029l-0.018-0.005l-0.207,0.718l0.215-0.716l-0.008-0.002l-0.207,0.718l0.215-0.716
		c-0.992-0.299-2.039,0.265-2.338,1.256C220.067,154.411,220.629,155.458,221.622,155.756"/>
	<rect x="203.499" y="190.645" fill="#CECECE" width="67.611" height="13.757"/>
	<rect x="203.499" y="216.073" fill="#CECECE" width="67.611" height="13.757"/>
	<rect x="203.499" y="242.336" fill="#CECECE" width="67.611" height="6.749"/>
	<path fill="#EBC98A" d="M310.497,221.376c-0.104-0.513-0.237-1.021-0.436-1.524c-0.194-0.501-0.304-1.019-0.57-1.505l-0.85-1.453
		l-0.423-0.726l-0.51-0.698l-1.017-1.393c-0.618-0.888-1.557-1.993-1.815-2.323c-3.216-3.896-6.388-7.37-9.606-10.85l-2.172-2.327
		c0,0-1.099-1.169-2.812-2.973l0.004-0.003l-0.873-0.918l-0.004,0.004c-2.089-2.192-4.825-5.048-7.585-7.869
		c-5.664-5.815-15.342-13.517-15.342-13.517c-3.808-3.816-4.109,23.83,1.463,29.549c5.586,5.714,19.245,17.93,21.925,21.181
		l0.327,0.402l-0.065,0.098c-2.248,3.42-4.972,7.062-7.71,10.621c-2.755,3.573-5.601,7.14-8.479,10.684l-2.866,3.505
		c-3.354,4.079-2.797,10.135,1.28,13.604c4.075,3.469,10.244,2.904,13.688-1.287l2.94-3.596c2.961-3.645,5.895-7.318,8.794-11.081
		c2.904-3.785,5.749-7.552,8.595-11.87l0.416-0.638l0.45-0.728l0.881-1.487c0.63-0.979,1.045-2.022,1.568-3.034
		c0.926-2.068,1.165-4.143,1.16-6.292L310.497,221.376z"/>
	<path fill="#EBC98A" d="M207.695,173.601c0,0-8.276,7.364-13.991,13.113c-2.769,2.812-5.517,5.655-7.613,7.838l-0.003-0.002
		l-0.877,0.912l0.003,0.004c-1.719,1.794-2.821,2.958-2.821,2.958l-2.181,2.317c-3.203,3.428-6.366,6.869-9.562,10.669l-0.604,0.737
		l-0.974,1.21l-2.039,2.748l-0.855,1.434c-0.278,0.479-0.608,0.949-0.741,1.458l-0.536,1.499l-0.357,1.52
		c-0.376,1.031-0.198,2.125-0.117,3.153c0.127,1.043,0.273,2.089,0.696,3.119c0.165,0.521,0.391,1.028,0.643,1.539l0.723,1.523
		c0.568,0.987,1.119,2.009,1.702,2.966l1.155,1.832l1.024,1.563l2.059,3.012c1.376,1.977,2.763,3.889,4.157,5.789
		c2.792,3.796,5.621,7.501,8.474,11.18l2.858,3.658c3.353,4.269,9.504,4.972,13.659,1.594c4.152-3.378,4.844-9.419,1.58-13.571
		l-2.787-3.568c-2.773-3.575-5.518-7.172-8.166-10.774c-1.32-1.8-2.631-3.605-3.879-5.398l-1.827-2.675l-0.864-1.316l-0.684-1.08
		l-0.008-0.01l0.596-0.725c2.714-3.232,16.387-15.332,21.996-21.028C213.172,197.127,211.514,169.798,207.695,173.601"/>
	<path fill="#441A12" d="M193.734,124.879c0,0-0.183-0.24-1.478-3.632c-1.935-5.09-2.496-3.222-4.215-8.556
		c-1.739-5.35-4.062-9.875-5.025-13.306c-0.966-3.454-2.903-7.856-1.67-11.161c1.257-3.306,1.576-9.149,6.514-11.242
		c0,0-5.672-13.274,14.914-22.192c0,0,13.47-18.605,33.99-12.634c0,0,11.117-2.439,23.28,6.716c0,0,10.793-3.716,20.152,10.896
		c0,0,5.795,11.075,4.721,15.018c0,0,5.937,6.787,3.315,8.478c0,0,4.276,4.814,0.566,5.271c0,0,4.884,6.345,1.277,8.991
		c0,0,0.037,5.175-2.567,7.532c0,0-1.141,4.972-1.414,6.8c-0.293,1.834-1.079,3.82-2.239,6.204c-1.162,2.403-1.934,5.035-2.99,7.036
		c-1.035,2.001-2.305,2.467-2.305,2.467s-1.024,0.308-0.048-5.322c0,0,0.137-4.663,0.323-8.036c0.211-3.372-0.821-7.97-0.094-10.996
		c0.73-3.004,2.119-8.407,1.99-10.716c-0.13-2.332-1.587-7.429-2.162-8.419c-0.557-1.013-12.752-8.095-16.72-14.472
		c0,0-5.47,1.852-6.774-0.915c0,0-4.121,2.821-7.299-0.634c0,0-4.04,2.814-7.268,0.342c-0.175-0.113-0.328-0.273-0.481-0.41
		c-3.291-3.198-6.082,2.533-8.967-0.543c0,0-3.951-1.197-4.471,1.024c0,0,1.331,2.911-5.479,1.726c0,0-7.331-1.532-10.184,0.841
		c0,0-8.697,10.966-12.488,12.6c0,0-6.771,4.011-5.057,4.416c0,0,2.722,0.121,2.06,2.097c0,0-0.566,1.455,0.796,2.67
		c1.363,1.22,1.652,4.188,1.116,6.138c-0.534,1.993-1.263,2.806-1.527,5.139c-0.245,2.351-1.329,1.638-0.925,6.647
		c0.429,5.028,1.477,5.492,0.427,7.617c-1.027,2.125-0.843,6.938-0.618,7.239C195.209,126.279,193.593,127.207,193.734,124.879"/>
	<g opacity="0.1">
		<g>
			<defs>
				<rect id="SVGID_33_" x="206.496" y="55.568" width="24.415" height="12.269"/>
			</defs>
			<clipPath id="SVGID_34_">
				<use xlink:href="#SVGID_33_"  overflow="visible"/>
			</clipPath>
			<path clip-path="url(#SVGID_34_)" fill="#FFFFFF" d="M224.05,67.837c0,0-8.461-12.387-17.554-6.616c0,0,5.075-6.653,14.621,0.476
				c0,0-2.646-3.985-5.368-4.876c0,0,8.797-4.711,14.137,4.135c0,0-2.168-2.907-6.095-3.709l2.141,2.467l-2.838-1.132
				c0,0,5.648,3.565,7.817,6.889c0,0-4.231-2.874-7.689-4.581c-3.456-1.708-0.334,0.019-0.334,0.019l2.22,4.196
				c0,0-1.921-1.875-3.937-2.452C221.171,62.653,223.765,65.703,224.05,67.837"/>
		</g>
	</g>
	<path fill="#351905" d="M280.888,119.527c-0.304-0.389-0.822-0.302-1.082-1.253c-0.259-0.95-2.678-7.389-5.356-8.858
		c-2.68-1.469-7.807-3.975-20.25-4.84c-9.625-0.239-15.449-0.44-17.107-0.5v-0.018c0,0-0.084,0.003-0.246,0.009
		c-0.164-0.006-0.248-0.009-0.248-0.009v0.018c-1.658,0.06-7.481,0.261-17.104,0.5c-12.445,0.865-17.574,3.371-20.252,4.84
		c-2.681,1.469-5.099,7.908-5.357,8.858c-0.26,0.951-0.78,0.864-1.081,1.253c-0.304,0.389,0.043,2.678,0.994,4.149
		c1.036,8.252,4.492,12.962,6.653,15.468c2.161,2.507,8.125,3.718,12.273,3.544c9.16-1.556,10.715-4.322,14.69-8.21
		c3.975-3.889,7.116-14.518,7.576-15.729c0.35-0.918,1.379-1.238,1.855-1.339c0.475,0.101,1.505,0.421,1.854,1.339
		c0.462,1.211,3.602,11.84,7.576,15.729c3.976,3.888,5.531,6.654,14.693,8.21c4.146,0.174,10.108-1.037,12.271-3.544
		c2.162-2.506,5.617-7.216,6.653-15.468C280.845,122.205,281.189,119.916,280.888,119.527 M231.996,121.083
		c-0.694,3.111-3.113,9.42-5.879,12.445s-4.569,5.742-11.552,7.258c-4.004,0.519-9.967,0.088-12.732-3.196s-5.53-8.492-5.53-13.45
		c0-4.957,0.346-6.772,0.346-6.772s1.641-5.617,5.963-7.432s11.234-3.025,18.753-2.507c7.519,0.519,10.024,1.73,10.632,3.371
		C232.601,112.441,232.686,117.972,231.996,121.083 M271.855,137.589c-2.765,3.284-8.728,3.715-12.731,3.196
		c-6.981-1.516-8.785-4.233-11.552-7.258c-2.765-3.024-5.185-9.334-5.876-12.445c-0.693-3.111-0.604-8.642,0-10.284
		c0.604-1.641,3.111-2.852,10.629-3.371c7.519-0.518,14.433,0.692,18.752,2.507c4.324,1.815,5.963,7.432,5.963,7.432
		s0.348,1.815,0.348,6.772C277.388,129.097,274.622,134.305,271.855,137.589"/>
	<path fill="#A17650" d="M242.342,144.736c0,0.755-2.45,1.368-5.472,1.368s-5.472-0.613-5.472-1.368s2.45-1.368,5.472-1.368
		S242.342,143.981,242.342,144.736"/>
</g>
<g>
	<path fill="#B4D898" d="M395.609,191.121c3.62-3.748,3.532-9.732-0.207-13.41c-3.74-3.68-9.783-3.59-13.454,0.205l-2.782,2.885
		c-4.449,4.635-8.874,9.287-13.269,14.006c-4.396,4.729-8.757,9.475-13.077,14.498c-1.082,1.256-2.162,2.543-3.249,3.877
		l-0.818,1.025l-0.574,0.73c-0.234,0.301-0.466,0.615-0.698,0.941l-1.389,1.934c-0.443,0.652-0.793,1.338-1.193,2.006
		c-0.742,1.352-1.094,2.773-1.406,4.193c-0.059,0.365-0.218,0.721-0.198,1.096l0.083,1.111c0.037,0.73,0.149,1.455,0.283,2.18
		c0.034,0.365,0.176,0.725,0.303,1.086l0.379,1.076c0.288,0.717,0.657,1.42,0.981,2.131c0.345,0.701,0.772,1.383,1.158,2.074
		l0.591,1.02l0.474,0.764c1.901,3.031,3.802,5.715,5.729,8.416c1.925,2.676,3.871,5.289,5.833,7.879l4.164,5.438l15.016-11.637
		l-4.033-5.268c-1.891-2.496-3.757-5.002-5.555-7.502c-1.783-2.492-3.562-5.025-5.046-7.402l-0.169-0.266l0.853-1.07
		c0.929-1.143,1.897-2.297,2.897-3.459c4.003-4.652,8.272-9.309,12.566-13.922c4.302-4.621,8.669-9.215,13.059-13.785
		L395.609,191.121z"/>
	<path fill="#B07D3F" d="M381.392,250.617l-3.104-3.973l-15.016,11.637l3.184,4.076c3.282,4.182,9.313,4.873,13.385,1.561
		C383.909,260.609,384.586,254.686,381.392,250.617"/>
	<path fill="#B4D898" d="M448.072,179.566c-1.302-1.51-2.961-2.773-4.893-3.527c-1.919-0.748-3.947-0.979-5.657-0.594
		c-0.847,0.16-1.583,0.482-2.201,0.891c-0.615,0.385-1.116,0.865-1.507,1.418c-0.776,1.086-1.077,2.326-1.098,3.635
		c0.004,2.617,0.816,5.037,0.668,6.838c-0.145,1.791-0.691,2.654,0.2,3.627c0.425,0.482,0.894,1.203,1.363,1.953
		c0.999,1.727,1.961,3.848,2.776,6.168c0.823,2.312,1.547,4.785,2.187,7.328c1.272,5.094,2.228,10.459,3.002,15.889
		c1.531,10.883,2.369,22.061,2.841,33.26l0.228,6.604l18.991-0.518l-0.234-6.871c-0.499-11.672-1.358-23.355-3.017-35.148
		c-0.843-5.898-1.884-11.824-3.384-17.838c-0.757-3.008-1.631-6.037-2.73-9.117c-1.094-3.074-2.44-6.217-4.316-9.443
		C450.365,182.611,449.385,181.1,448.072,179.566"/>
	<path fill="#B07D3F" d="M465.087,267.744l-0.114-5.207l-18.991,0.518l0.109,5.004c0.091,5.125,4.304,9.256,9.546,9.342
		C460.886,277.484,465.18,273.107,465.087,267.744"/>
	<path fill="#B4D898" d="M439.511,174.947c-6.261-1.395-15.921-3.084-25.976-3.086c-10.065,0-19.758,1.695-26.037,3.092
		c-3.963,0.881-7.129,5.105-7.129,9.164v66.219h66.267v-66.219C446.636,180.059,443.475,175.83,439.511,174.947"/>
	<polygon fill="#B07D3F" points="427.231,164.346 428.258,172.926 413.503,193.318 398.75,172.932 399.776,164.346 	"/>
	<path fill="#8AAF69" d="M419.472,196.18c0,0.902-0.731,1.631-1.632,1.631c-0.904,0-1.634-0.729-1.634-1.631
		c0-0.9,0.729-1.633,1.634-1.633C418.74,194.547,419.472,195.279,419.472,196.18"/>
	<path fill="#8AAF69" d="M364.903,252.246c0,0.902-0.73,1.633-1.632,1.633c-0.903,0-1.634-0.73-1.634-1.633
		c0-0.9,0.73-1.633,1.634-1.633C364.173,250.613,364.903,251.346,364.903,252.246"/>
	<path fill="#8AAF69" d="M462.508,258.281c0,0.902-0.73,1.631-1.634,1.631c-0.901,0-1.632-0.729-1.632-1.631
		c0-0.9,0.73-1.633,1.632-1.633C461.777,256.648,462.508,257.381,462.508,258.281"/>
	<path fill="#8AAF69" d="M413.504,250.613c-0.315,0-0.566-0.252-0.566-0.566v-56.791c0-0.312,0.251-0.566,0.566-0.566
		c0.314,0,0.567,0.254,0.567,0.566v56.791C414.071,250.361,413.818,250.613,413.504,250.613"/>
	<polygon fill="#666666" points="407.63,340.217 378.152,340.217 378.152,335.297 380.69,330.789 407.63,335.184 	"/>
	<polygon fill="#666666" points="426.396,340.217 455.871,340.217 455.871,335.297 453.336,330.789 426.396,335.184 	"/>
	<path fill="#A37136" d="M427.344,169.221c0,0-4.377,2.129-13.793,2.129s-13.896-2.145-13.896-2.145s7.448-1.566,13.896-1.566
		C419.997,167.639,427.344,169.221,427.344,169.221"/>
	<path fill="#B07D3F" d="M376.553,126.34c0,4.803-3.893,8.693-8.693,8.693c-4.803,0-8.696-3.891-8.696-8.693
		c0-4.804,3.894-8.696,8.696-8.696C372.66,117.644,376.553,121.536,376.553,126.34"/>
	<path fill="#B07D3F" d="M467.938,126.34c0,4.803-3.895,8.693-8.695,8.693c-4.8,0-8.693-3.891-8.693-8.693
		c0-4.804,3.894-8.696,8.693-8.696C464.043,117.644,467.938,121.536,467.938,126.34"/>
	<path fill="#B07D3F" d="M429.184,53.586l-30.641,0.628c-33.072,0-30.684,60.914-30.684,60.914v16.583
		c0,20.984,17.01,37.996,37.994,37.996h15.394c20.982,0,37.995-17.012,37.995-37.996l-0.003-16.518
		C459.239,115.193,462.256,53.586,429.184,53.586"/>
	<path fill="#443425" d="M395.114,120.628c0,2.616-2.121,4.733-4.736,4.733c-2.614,0-4.731-2.118-4.731-4.733v-2.053
		c0-2.618,2.117-4.739,4.731-4.739c2.615,0,4.736,2.121,4.736,4.739V120.628z"/>
	<path fill="#443425" d="M441.616,120.628c0,2.616-2.118,4.733-4.736,4.733c-2.613,0-4.733-2.118-4.733-4.733v-2.053
		c0-2.618,2.12-4.739,4.733-4.739c2.618,0,4.736,2.121,4.736,4.739V120.628z"/>
	<path fill="#6F4221" d="M413.629,149.756c-10.911,0-15.19-1.25-15.366-1.305c-0.973-0.291-1.524-1.318-1.233-2.291
		c0.293-0.971,1.312-1.523,2.283-1.232c0.078,0.021,4.123,1.15,14.316,1.15c10.239,0,14.279-1.141,14.318-1.152
		c0.97-0.283,1.993,0.273,2.279,1.246c0.288,0.969-0.259,1.988-1.229,2.279C428.818,148.506,424.535,149.756,413.629,149.756"/>
	<polygon fill="#8AAF69" points="398.751,172.932 413.504,193.318 403.917,189.525 396.89,192.213 	"/>
	<polygon fill="#8AAF69" points="428.258,172.932 413.504,193.318 423.092,189.525 430.116,192.213 	"/>
	<path fill="#666666" d="M471.484,72.992c-6.113-3.378-12.883-6.268-12.883-6.268s-1.528-10.116-3.93-16.385
		c-2.401-6.259-6.332-16.399-12.23-19.031c-9.173-4.093-28.822-4.093-28.822-4.093s-18.127,0-28.828,4.093
		c-6.009,2.302-9.824,12.772-12.225,19.031c-2.401,6.269-3.931,16.385-3.931,16.385s-6.771,2.89-12.882,6.268
		c-6.115,3.372-10.487,9.151-11.793,15.418c1.967,19.273,24.455,27.466,24.455,27.466s0-15.903,1.09-21.443
		c1.094-5.541,3.492-7.954,12.887-12.046c9.386-4.094,31.227-5.545,31.227-5.545s21.837,1.451,31.227,5.545
		c9.389,4.092,11.793,6.505,12.886,12.046c1.088,5.54,1.088,21.443,1.088,21.443s22.491-8.193,24.458-27.466
		C481.967,82.143,477.6,76.364,471.484,72.992"/>
	<path fill="#999999" d="M458.602,66.725c0,0-1.528-10.116-3.93-16.385c-2.401-6.259-6.332-16.4-12.23-19.032
		c-9.173-4.092-28.822-4.092-28.822-4.092s-18.127,0-28.828,4.092c-6.009,2.302-9.824,12.773-12.225,19.032
		c-2.402,6.269-3.931,16.385-3.931,16.385S416.11,51.723,458.602,66.725"/>
	<path fill="#42210B" d="M466.123,111.069c-0.062-0.628-2.32-1.258-2.32-1.258s-2.829-0.689-5.779-1.851
		c-2.949-1.161-8.977-3.359-11.739-3.735s-9.419-0.753-13.186-0.252c-3.769,0.503-7.536,1.319-8.791,2.01
		c-1.254,0.69-2.511,1.506-3.075,1.947c-0.564,0.44-1.131,0.88-1.632,0.815c-0.504-0.062-1.634-0.815-1.634-0.815
		s-2.984,0-4.721,0.017c-1.735-0.017-4.72-0.017-4.72-0.017s-1.13,0.753-1.634,0.815c-0.504,0.065-1.065-0.375-1.632-0.815
		c-0.564-0.441-1.821-1.257-3.076-1.947c-1.255-0.691-5.021-1.507-8.79-2.01c-3.767-0.501-10.423-0.124-13.186,0.252
		c-2.76,0.376-8.79,2.574-11.74,3.735c-2.952,1.162-5.775,1.851-5.775,1.851s-2.262,0.63-2.323,1.258
		c-0.063,0.628,0.503,5.838,0.503,5.838s2.385,0.628,3.766,1.131c1.381,0.502,2.01,1.38,3.016,3.327
		c1.001,2.45,3.765,9.293,5.523,11.868c1.757,2.572,5.712,4.205,10.862,5.398c9.481,0.752,12.87-1.383,15.946-3.014
		s4.897-5.525,5.965-7.408c1.068-1.883,2.888-9.355,3.015-9.983c0.125-0.628-0.283-1.287-0.628-1.788
		c-0.346-0.503-0.66-1.539-0.532-2.262c0.124-0.72,0.501-1.507,2.07-2.04c0.993-0.339,2.443-0.487,3.37-0.55
		c0.93,0.063,2.377,0.211,3.372,0.55c1.569,0.533,1.944,1.32,2.069,2.04c0.127,0.723-0.187,1.759-0.532,2.262
		c-0.345,0.501-0.753,1.16-0.628,1.788c0.127,0.628,1.948,8.1,3.014,9.983c1.067,1.883,2.888,5.777,5.967,7.408
		c3.075,1.631,6.465,3.766,15.946,3.014c5.149-1.193,9.104-2.826,10.862-5.398c1.758-2.574,4.519-9.417,5.522-11.868
		c1.007-1.947,1.634-2.825,3.015-3.327c1.382-0.503,3.769-1.131,3.769-1.131S466.187,111.697,466.123,111.069 M366.931,115.048
		c-0.234,0-3.437-1.108-3.437-1.108v-0.305c0,0,2.824-0.966,3.084-0.966c0.258,0,1.2,0.567,1.318,1.084
		C368.013,114.27,367.165,115.048,366.931,115.048 M402.483,129.01c-2.309,3.391-4.239,6.639-13.75,7.062
		c-3.769,0-8.759-0.047-12.433-3.438c-1.32-1.461-3.719-4.852-4.378-8.146c-0.659-3.295-0.933-7.936-0.565-9.44
		c0,0,0.502-2.912,1.694-4.167c1.193-1.255,2.355-2.166,5.306-2.858c2.951-0.689,9.355-1.286,14.535-0.848
		c0,0,4.694,0.502,6.576,1.398c1.884,0.895,4.805,3.202,5.228,6.876C405.121,119.12,405.261,124.629,402.483,129.01
		 M454.572,124.488c-0.66,3.295-3.061,6.686-4.38,8.146c-3.674,3.391-8.664,3.438-12.431,3.438
		c-9.513-0.424-11.443-3.672-13.751-7.062c-2.778-4.381-2.637-9.89-2.214-13.561c0.425-3.674,3.344-5.981,5.228-6.876
		c1.883-0.896,6.576-1.398,6.576-1.398c5.18-0.438,11.584,0.159,14.535,0.848c2.95,0.692,4.113,1.603,5.304,2.858
		c1.194,1.255,1.697,4.167,1.697,4.167C455.504,116.553,455.23,121.193,454.572,124.488 M463,113.94c0,0-3.202,1.108-3.438,1.108
		s-1.082-0.778-0.965-1.295s1.06-1.084,1.318-1.084s3.084,0.966,3.084,0.966V113.94z"/>
	<path fill="#00A99D" d="M407.566,269.973c-0.003-2.707,2.189-4.904,4.896-4.904h2.291c2.709,0,5.113,2.188,5.375,4.881
		l1.689,17.586l26.725-5.455l-1.907-19.381v-12.363H380.37l0.131,32.916l27.083,5.061L407.566,269.973z"/>
	<polygon fill="#B07D3F" points="426.396,335.184 453.336,330.789 448.543,282.08 421.818,287.535 	"/>
	<polygon fill="#B07D3F" points="407.63,335.184 407.585,288.312 380.501,283.252 380.69,330.789 	"/>
</g>
<g>
	<path fill="#FFDA96" d="M23.584,136.5c0,4.738-3.84,8.579-8.576,8.579c-4.736,0-8.576-3.841-8.576-8.579
		c0-4.736,3.84-8.576,8.576-8.576C19.745,127.924,23.584,131.764,23.584,136.5"/>
	<path fill="#FFDA96" d="M113.724,136.5c0,4.738-3.84,8.579-8.576,8.579c-4.737,0-8.576-3.841-8.576-8.579
		c0-4.736,3.839-8.576,8.576-8.576C109.884,127.924,113.724,131.764,113.724,136.5"/>
	<path fill="#29ABE2" d="M93.822,189.001c-1.285-1.486-2.921-2.732-4.829-3.478c-1.893-0.738-3.891-0.965-5.579-0.584
		c-0.836,0.154-1.561,0.474-2.172,0.874c-0.608,0.384-1.099,0.855-1.483,1.403c-0.768,1.069-1.064,2.29-1.082,3.583
		c0,2.584,0.804,4.968,0.655,6.743c-0.141,1.767-0.681,2.619,0.198,3.579l0.112,0.142c0.074,0.104,0.186,0.203,0.33,0.423
		c0.286,0.408,0.723,1.001,1.226,1.94c1.029,1.804,2.272,4.832,3.291,8.122c1.018,3.301,1.846,6.815,2.391,9.492
		c0.552,2.678,0.858,4.505,0.858,4.505l18.456-3.245c0,0-0.335-2.012-0.963-5.053c-0.622-3.039-1.568-7.11-2.843-11.251
		c-1.285-4.14-2.953-8.368-4.8-11.653c-0.882-1.632-1.844-3.031-2.552-4.004c-0.338-0.483-0.687-0.879-0.887-1.138
		C93.934,189.141,93.822,189.001,93.822,189.001"/>
	<path fill="#FFDA96" d="M110.603,275.98l-0.096-4.521c-0.434-15.217-1.382-30.414-3.788-45.83l-0.525-3.128l-18.456,3.245
		l0.476,2.833c2.208,14.092,3.151,28.755,3.561,43.366l0.093,4.346c0.088,5.056,4.243,9.13,9.414,9.213
		C106.459,285.588,110.695,281.271,110.603,275.98"/>
	<polygon fill="#F2F2F2" points="87.061,222.131 86.833,221.02 105.18,217.199 105.437,218.457 	"/>
	<path fill="#29ABE2" d="M39.991,201.122c0.879-0.96,0.342-1.812,0.198-3.579c-0.147-1.774,0.655-4.159,0.655-6.744
		c-0.018-1.292-0.313-2.513-1.082-3.583c-0.384-0.547-0.875-1.019-1.483-1.401c-0.611-0.4-1.336-0.722-2.172-0.875
		c-1.687-0.381-3.685-0.153-5.578,0.584c-1.908,0.745-3.545,1.99-4.829,3.478c0,0-0.113,0.14-0.328,0.401
		c-0.2,0.259-0.549,0.654-0.886,1.138c-0.709,0.973-1.671,2.372-2.553,4.004c-1.847,3.285-3.515,7.514-4.8,11.654
		c-1.275,4.14-2.22,8.212-2.843,11.25c-0.628,3.041-0.962,5.054-0.962,5.054l18.456,3.244c0,0,0.305-1.827,0.857-4.504
		c0.545-2.678,1.373-6.192,2.392-9.492c1.018-3.291,2.262-6.319,3.29-8.122c0.503-0.94,0.94-1.534,1.226-1.941
		c0.144-0.221,0.256-0.317,0.33-0.423L39.991,201.122z"/>
	<path fill="#FFDA96" d="M27.654,276.291l0.093-4.346c0.41-14.611,1.353-29.274,3.561-43.366l0.476-2.833l-18.456-3.244
		l-0.525,3.127c-2.406,15.415-3.354,30.613-3.789,45.83l-0.095,4.521c-0.093,5.291,4.143,9.606,9.321,9.523
		C23.411,285.421,27.566,281.347,27.654,276.291"/>
	<polygon fill="#F2F2F2" points="14.085,218.457 14.342,217.199 32.688,221.02 32.461,222.131 	"/>
	<path fill="#29ABE2" d="M85.685,184.448c-6.175-1.378-15.703-3.043-25.62-3.046c-9.929,0-19.49,1.671-25.682,3.052
		c-3.913,0.866-7.03,5.033-7.03,9.037v65.315h65.36v-65.315C92.713,189.487,89.596,185.318,85.685,184.448"/>
	<path fill="#FFDA96" d="M73.572,175.198l1.011,8.786c0,0-2.537,9.622-14.55,9.622c-12.018,0-14.551-9.622-14.551-9.622l1.011-8.786
		H73.572z"/>
	<path fill="#F2F2F2" d="M60.033,196.63c11.343,0,16.39-7.768,17.474-11.874l0.144-0.552l-0.151-1.321
		c-0.408-0.063-0.824-0.129-1.239-0.19l0.164,1.424l-0.088,0.333c-1.001,3.793-5.699,10.972-16.304,10.972
		c-10.611,0-15.306-7.179-16.305-10.972l-0.088-0.333l0.164-1.419c-0.418,0.063-0.833,0.125-1.238,0.192l-0.152,1.314l0.144,0.55
		C43.64,188.862,48.684,196.63,60.033,196.63"/>
	<path fill="#333333" d="M27.354,258.809l0.312,71.212l26.574,3.892l-0.069-57.723c0-2.396,2.167-4.341,4.836-4.341h2.07
		c2.669,0,4.836,1.944,4.836,4.341l0.022,57.723l26.57-3.892l0.208-71.212H27.354z"/>
	<polygon fill="#F7931E" points="54.237,339.466 25.165,339.466 25.165,334.61 27.666,330.164 54.237,334.5 	"/>
	<polygon fill="#F7931E" points="65.935,339.466 95.006,339.466 95.006,334.61 92.507,330.164 65.935,334.5 	"/>
	<path fill="#EBC580" d="M73.685,178.799c0,0-4.318,2.101-13.605,2.101c-9.289,0-13.708-2.117-13.708-2.117
		s7.347-1.547,13.708-1.547C66.438,177.235,73.685,178.799,73.685,178.799"/>
	<path fill="#FFDA96" d="M72.043,64.739h-23.93c-32.621,0-33.105,60.705-33.105,60.705v16.357c0,20.699,16.781,37.477,37.479,37.477
		H67.67c20.697,0,37.477-16.777,37.477-37.477l-0.002-16.295C105.146,125.506,104.665,64.739,72.043,64.739"/>
	<path fill="#8E6C59" d="M41.894,137.482c0,2.582-2.091,4.67-4.67,4.67s-4.668-2.088-4.668-4.67v-2.025
		c0-2.581,2.089-4.67,4.668-4.67s4.67,2.089,4.67,4.67V137.482z"/>
	<path fill="#8E6C59" d="M88.792,137.482c0,2.582-2.091,4.67-4.67,4.67c-2.58,0-4.668-2.088-4.668-4.67v-2.025
		c0-2.581,2.088-4.67,4.668-4.67c2.579,0,4.67,2.089,4.67,4.67V137.482z"/>
	<g opacity="0.5">
		<g>
			<defs>
				<rect id="SVGID_35_" x="13.897" y="126.703" width="90.148" height="32.308"/>
			</defs>
			<clipPath id="SVGID_36_">
				<use xlink:href="#SVGID_35_"  overflow="visible"/>
			</clipPath>
		</g>
	</g>
	<path fill="#A17650" d="M60.158,168.352c-10.762,0-14.985-1.233-15.159-1.287c-0.96-0.288-1.502-1.299-1.214-2.259
		c0.286-0.958,1.292-1.503,2.252-1.214c0.076,0.019,4.065,1.133,14.121,1.133c10.098,0,14.084-1.123,14.123-1.136
		c0.958-0.279,1.966,0.269,2.247,1.229c0.283,0.955-0.256,1.961-1.211,2.247C75.141,167.118,70.912,168.352,60.158,168.352"/>
	<path fill="#534741" d="M14.189,144.18c0,0-2.049-6.594-3.185-10.025c-1.136-3.429-1.358-23.031-1.358-26.683
		c0-3.655,0-16.641,2.048-19.157c0,0-1.159-5.681-1.159-7.662c0,0-4.253-7.284-6.236-11.694c0,0,6.236,4.255,8.353,4.856
		c0,0-4.099-6.081-5.614-8.822c0,0,5.614,5.324,7.441,6.393c0,0-1.516-3.341-1.36-5.013c0,0,2.897,5.483,7.907,8.064
		c0,0-1.225-5.167-4.566-8.975c0,0,3.029-0.758,3.943,0.757c0,0-0.446-6.236-2.873-9.423c0,0,5.01-1.225,8.197,1.515
		c0,0-5.926-4.856-9.267-6.236c0,0,6.527-0.29,10.492,3.651c0,0-4.256-4.855,0.757-6.545c0,0-1.227,2.894,2.428,3.65
		c0,0-3.028-4.854,1.381-9.108c0,0-2.139,5.769,2.739,9.42c0,0-0.911-4.564,4.7-7.15c0,0-2.739,3.339-1.982,7.462
		c0,0,1.226-6.236,6.081-7.15c0,0-3.943,3.943-3.184,8.509c0,0,5.479-7.307,0.155-14.902c0,0,6.238,0.47,8.51,4.41
		c0,0,0.912-3.34,1.826-3.652c0,0,1.226,2.895,2.739,3.808c0,0,0.757-1.224,0-2.894c0,0,2.115,1.825,2.115,3.209
		c0,0,3.81-1.07,5.035,1.044c1.204,2.14,6.37,4.255,11.248,4.567c0,0-5.923-6.995-13.986-6.995c0,0,4.407-2.427,12.161,2.584
		c0,0-2.739-3.495-4.256-4.409c0,0,6.372,0.312,12.921,8.664c0,0,1.357-1.828-1.382-4.1c0,0,6.547,2.272,10.646,8.354
		c0,0-2.873-5.321-5.767-6.995c0,0,12.004,4.412,9.89,9.446c0,0,1.667,2.428,3.475,3.63c1.824,1.226,10.804,8.22,11.404,12.026
		c0.622,3.79,1.694,3.79,2.737,3.657c0,0,1.672-0.782,2.14-2.451c0,0,0.291,2.895-2.14,4.097c0,0-0.599,3.521,3.211,4.12
		c0,0,2.27,0.914,2.425,2.273c0,0-3.05-0.912-5.476-0.755c0,0,2.737,4.254,5.632,6.525c0,0,3.341,1.982-1.67,11.272
		c0,0-1.225,7.125-1.069,10.333c0.158,3.185,0,10.18,0,13.833c0,3.655,0.158,5.926-2.292,10.802c-2.43,4.86-4.544,6.838-4.7,8.957
		c-0.157,2.137,0.286,6.838-0.157,7.307c0,0-1.671-0.469-1.671-3.809c0-3.342,0-10.938-0.467-14.146
		c-0.444-3.185-1.36-8.51-3.186-12.16c-1.828-3.632-3.341-13.834-3.341-16.105c0-2.293-1.67-7.307-1.67-8.664
		c0-1.382-0.159-2.142-1.827-0.312c-1.669,1.825-15.814,2.583-23.41,1.225c-7.595-1.383-9.733,4.699-17.042,2.582
		c-7.282-2.138-10.022,0.448-13.52,0.915c-3.498,0.444-5.011,2.428-7.305,4.41c-2.272,1.958-1.516,5.324-5.455,7.44
		c-3.968,2.137-6.083,2.137-5.95,7.149c0.156,5.011,0,10.025-1.959,11.249c-1.984,1.227-3.209,5.635-3.498,8.062
		C14.633,142.843,15.436,145.383,14.189,144.18"/>
	<g opacity="0.1">
		<g>
			<defs>
				<rect id="SVGID_37_" x="24.969" y="59.536" width="67.961" height="39.515"/>
			</defs>
			<clipPath id="SVGID_38_">
				<use xlink:href="#SVGID_37_"  overflow="visible"/>
			</clipPath>
			<path clip-path="url(#SVGID_38_)" fill="#FFFFFF" d="M24.969,75.194c0,0,4.566,4.098,5.48,6.838
				c0.913,2.742,6.079,11.093,14.277,13.834c0,0-10.177-8.219-13.518-16.128c0,0,4.72,1.984,8.819,8.377
				c0,0,6.08,10.025,13.832,10.936c0,0-6.081-4.857-7.907-10.624c0,0-5.636-15.683-9.58-19.314c0,0-1.355,7.597,1.36,12.764
				c0,0-1.959-2.739-9.109-4.255C28.623,77.622,27.109,75.33,24.969,75.194"/>
			<path clip-path="url(#SVGID_38_)" fill="#FFFFFF" d="M40.943,68.203c0,0,3.652,4.252,3.939,8.663c0,0,0.916,13.076,7.91,17.017
				c0,0-3.498-4.565-3.498-8.062c0,0,2.426,9.732,11.093,12.16c0,0-5.77-4.542-6.683-7.439c0,0,2.426,3.653,5.323,4.723
				l-2.583-3.965c0,0,3.498,5.925,8.82,6.993c0,0-11.849-8.975-15.503-20.513c0,0,4.099,9.265,9.866,12.608
				c0,0-4.855-5.326-5.767-9.892c0,0,3.496,1.693,5.324,5.792c0,0,2.737,7.907,11.094,9.265c0,0-4.701-3.339-6.838-10.645
				c0,0-1.519-3.944-4.724-5.769c0,0,2.895,0.467,5.946,5.769c0,0,5.458,10.2,13.968,11.872c0,0-6.973-4.723-10.781-12.317
				c0,0,7.15,10.179,15.657,13.83c0,0-7.15-6.079-9.89-10.937c0,0,8.066,5.925,11.116,9.714c0,0-7.774-11.542-16.574-19.003
				l10.784,8.824c0,0-1.071-4.411-3.789-6.839c0,0,10.337,11.248,13.075,13.074c0,0-6.081-10.937-11.27-13.987
				c0,0,8.821,2.427,12.029,11.249c0,0-3.653-8.955,3.943-3.032c0,0-0.602-3.653-6.083-6.234c0,0-11.559-7.753-15.347-11.561
				c0,0,5.613,1.515,10.493,6.547c0,0-2.14-4.721-9.581-8.975c0,0-6.235-3.497-9.286-7.597c0,0,1.982,4.857,6.861,7.907
				c0,0-7.907-3.653-11.115-4.565c0,0,3.208,3.942,5.633,5.325c0,0-6.393-2.895-8.216-5.038c0,0-3.342-3.182-7.285-3.341
				c0,0,5.458,2.587,8.197,8.823c0,0-3.652-0.602-5.926-4.7c0,0-0.312,3.031,1.517,6.08c0,0-1.072,0.913-3.031-2.584
				c0,0-0.312,3.342,2.115,7.887c0,0-3.94-1.359-5.323-7.285c0,0-0.445,3.187,1.984,7.15C48.537,75.194,44.727,68.804,40.943,68.203
				"/>
		</g>
	</g>
	<g>
		<path fill="#FEFFF9" d="M55.249,227.45c0.155,1.403,0.429,2.104,1.013,2.885c0.936,1.169,2.572,1.831,4.56,1.831
			c3.001,0,4.794-1.325,4.794-3.507c0-1.209-0.624-2.261-1.637-2.729c-0.818-0.39-1.793-0.662-5.846-1.598
			c-3.586-0.779-4.833-1.247-6.274-2.261c-2.455-1.714-3.78-4.325-3.78-7.482c0-6.001,4.832-9.781,12.51-9.781
			c4.949,0,8.729,1.52,10.834,4.442c0.975,1.286,1.441,2.455,1.948,4.677l-8.262,0.896c-0.468-2.533-1.87-3.585-4.832-3.585
			c-2.378,0-4.131,1.285-4.131,3.078c0,1.091,0.584,1.91,1.831,2.494c0.779,0.351,0.779,0.351,5.378,1.286
			c2.962,0.624,4.833,1.286,6.313,2.222c2.806,1.753,4.209,4.364,4.209,7.95c0,2.923-0.936,5.417-2.728,7.17
			c-2.261,2.183-5.69,3.312-10.25,3.312c-3.312,0-6.586-0.701-8.69-1.909c-1.948-1.091-3.391-2.767-4.209-4.988
			c-0.39-0.936-0.584-1.832-0.857-3.624L55.249,227.45z"/>
	</g>
</g>
</svg>
