<?xml version="1.0" encoding="utf-8"?>
<!-- Generator: Adobe Illustrator 16.0.0, SVG Export Plug-In . SVG Version: 6.00 Build 0)  -->
<!DOCTYPE svg PUBLIC "-//W3C//DTD SVG 1.1//EN" "http://www.w3.org/Graphics/SVG/1.1/DTD/svg11.dtd">
<svg version="1.1" xmlns="http://www.w3.org/2000/svg" xmlns:xlink="http://www.w3.org/1999/xlink" x="0px" y="0px"
	 width="636.083px" height="302.662px" viewBox="0 0 636.083 302.662" enable-background="new 0 0 636.083 302.662"
	 xml:space="preserve">
<g id="Background">
</g>
<g id="Objects">
	<g>
		<g>
			<rect x="369.897" y="190.186" fill="#E6E7E8" width="8.447" height="59.784"/>
			<polygon fill="#E6E7E8" points="344.229,262.316 340.493,262.316 369.897,249.97 375.096,256.144 			"/>
			<polygon fill="#E6E7E8" points="402.569,262.316 407.768,262.316 378.364,249.97 373.165,256.144 			"/>
			<rect x="369.897" y="249.97" fill="#E6E7E8" width="8.447" height="5.3"/>
			<polygon fill="#E6E7E8" points="375.989,266.135 372.29,266.135 370.696,248.244 377.545,248.244 			"/>
			<rect x="340.493" y="262.316" fill="#E6E7E8" width="3.736" height="3.819"/>
			<rect x="404.032" y="262.316" fill="#E6E7E8" width="3.736" height="3.819"/>
			<g>
				<polyline fill="#273244" points="342.782,194.411 405.459,194.411 405.459,184.542 342.782,184.542 				"/>
				<polyline fill="#041728" points="342.782,194.411 405.459,194.411 405.459,190.186 342.782,190.186 				"/>
				<polyline fill="#041728" points="342.782,184.542 405.459,184.542 405.459,94.386 342.782,94.386 				"/>
			</g>
			<rect x="362.993" y="194.331" fill="#65859E" width="22.256" height="4.548"/>
			<ellipse fill="#231F20" cx="341.964" cy="266.191" rx="2.349" ry="2.37"/>
			<ellipse fill="#231F20" cx="373.88" cy="266.191" rx="2.349" ry="2.37"/>
			<ellipse fill="#231F20" cx="405.814" cy="266.191" rx="2.349" ry="2.37"/>
		</g>
		<g>
			<path fill="#2A3A49" d="M353.143,149.213c0,0-15.605,15.719-0.059,35.328c20.381,0,44.023,0,44.023,0s6.262-6.775,6.098-17.664
				c-0.139-9.069-7.324-17.664-7.324-17.664H353.143z"/>
			<path fill="#231F20" d="M392.366,260.024c0,0,8.076,3.354,11.113,3.665c3.971,0.408,4.908,7.024,4.908,7.024h-26.992
				c0,0-1.285-3.905-0.859-7.908c5.088-1.196,11.107-2.781,11.107-2.781"/>
			<path fill="#231F20" d="M354.872,260.024c0,0-8.078,3.354-11.113,3.665c-3.971,0.408-4.908,7.024-4.908,7.024h26.992
				c0,0,1.285-3.905,0.859-7.908c-5.088-1.196-11.109-2.781-11.109-2.781"/>
			<path fill="#2D3E50" d="M366.606,263.079c0,0,8.49-92.11,8.49-92.891s-1.25-14.571-12.736-14.571
				c-11.484,0-14.732,7.807-14.732,16.393s4.246,91.069,4.246,91.069H366.606z"/>
			<path fill="#2D3E50" d="M395.711,263.079c0,0,8.49-92.11,8.49-92.891s-1.25-14.571-12.736-14.571
				c-11.484,0-14.732,7.807-14.732,16.393s4.246,91.069,4.246,91.069H395.711z"/>
		</g>
		<polygon fill="#FFFFFF" points="352.811,130.864 353.143,149.213 395.881,149.213 396.983,130.864 		"/>
	</g>
	<g>
		<g>
			<rect x="189.179" y="190.186" fill="#E6E7E8" width="8.448" height="59.784"/>
			<polygon fill="#E6E7E8" points="163.511,262.316 159.774,262.316 189.179,249.97 194.378,256.144 			"/>
			<polygon fill="#E6E7E8" points="221.852,262.316 227.051,262.316 197.647,249.97 192.448,256.144 			"/>
			<rect x="189.179" y="249.97" fill="#E6E7E8" width="8.448" height="5.3"/>
			<polygon fill="#E6E7E8" points="195.272,266.135 191.573,266.135 189.979,248.244 196.827,248.244 			"/>
			<rect x="159.774" y="262.316" fill="#E6E7E8" width="3.737" height="3.819"/>
			<rect x="223.314" y="262.316" fill="#E6E7E8" width="3.737" height="3.819"/>
			<g>
				<polyline fill="#273244" points="162.064,194.411 224.742,194.411 224.742,184.542 162.064,184.542 				"/>
				<polyline fill="#041728" points="162.064,194.411 224.742,194.411 224.742,190.186 162.064,190.186 				"/>
				<polyline fill="#041728" points="162.064,184.542 224.742,184.542 224.742,94.386 162.064,94.386 				"/>
			</g>
			<rect x="182.275" y="194.331" fill="#65859E" width="22.256" height="4.548"/>
			<ellipse fill="#231F20" cx="161.247" cy="266.191" rx="2.349" ry="2.37"/>
			<ellipse fill="#231F20" cx="193.163" cy="266.191" rx="2.349" ry="2.37"/>
			<ellipse fill="#231F20" cx="225.097" cy="266.191" rx="2.349" ry="2.37"/>
		</g>
		<g>
			<path fill="#2A3A49" d="M172.425,149.213c0,0-15.604,15.719-0.059,35.328c20.381,0,44.024,0,44.024,0s6.263-6.775,6.097-17.664
				c-0.138-9.069-7.323-17.664-7.323-17.664H172.425z"/>
			<path fill="#231F20" d="M211.648,260.024c0,0,8.077,3.354,11.113,3.665c3.971,0.408,4.909,7.024,4.909,7.024h-26.993
				c0,0-1.285-3.905-0.859-7.908c5.088-1.196,11.108-2.781,11.108-2.781"/>
			<path fill="#231F20" d="M174.154,260.024c0,0-8.077,3.354-11.113,3.665c-3.971,0.408-4.909,7.024-4.909,7.024h26.993
				c0,0,1.285-3.905,0.859-7.908c-5.088-1.196-11.108-2.781-11.108-2.781"/>
			<path fill="#2D3E50" d="M185.888,263.079c0,0,8.49-92.11,8.49-92.891s-1.249-14.571-12.735-14.571
				c-11.486,0-14.732,7.807-14.732,16.393s4.245,91.069,4.245,91.069H185.888z"/>
			<path fill="#2D3E50" d="M214.993,263.079c0,0,8.49-92.11,8.49-92.891s-1.249-14.571-12.735-14.571
				c-11.486,0-14.732,7.807-14.732,16.393s4.245,91.069,4.245,91.069H214.993z"/>
		</g>
		<polygon fill="#FFFFFF" points="172.094,130.864 172.425,149.213 215.165,149.213 216.266,130.864 		"/>
	</g>
	<g>
		<g>
			<rect x="65.562" y="190.061" fill="#F9FDFF" width="9.395" height="66.481"/>
			<polygon fill="#F9FDFF" points="37.019,270.272 32.863,270.272 65.562,256.542 71.343,263.409 			"/>
			<polygon fill="#F9FDFF" points="101.896,270.272 107.677,270.272 74.979,256.542 69.197,263.409 			"/>
			<rect x="65.562" y="256.542" fill="#F9FDFF" width="9.395" height="5.895"/>
			<polygon fill="#F9FDFF" points="72.337,274.519 68.224,274.519 66.451,254.624 74.067,254.624 			"/>
			<rect x="32.863" y="270.272" fill="#F9FDFF" width="4.156" height="4.247"/>
			<rect x="103.521" y="270.272" fill="#F9FDFF" width="4.156" height="4.247"/>
			<g>
				<polygon fill="#273244" points="0,94.386 33.003,194.758 103.521,194.758 103.521,183.784 42.352,183.784 11.686,95.503 				"/>
				<polygon fill="#041728" points="36.254,190.061 4.593,94.825 0,94.386 33.003,194.758 103.521,194.758 103.521,190.061 				"/>
			</g>
			<rect x="57.884" y="194.67" fill="#65859E" width="24.75" height="5.057"/>
			<circle fill="#231F20" cx="34.94" cy="274.932" r="2.599"/>
			<circle fill="#231F20" cx="70.259" cy="274.932" r="2.599"/>
			<circle fill="#231F20" cx="105.599" cy="274.932" r="2.599"/>
		</g>
		<g>
			<path fill="#2D3E50" d="M177.121,261.075l-32.387-97.657c-2.404-3.685-6.515-5.911-10.915-5.911c0,0-18.471-1.772-43.438-2.443
				c-10.045-0.271-18.313-4.448-19.158-5.157H39.069c0.042,0.245-1.787,33.664,39.399,33.664c16.944,0,38.985,0,48.291,0
				l33.675,80.286L177.121,261.075z"/>
			<path fill="#231F20" d="M177.121,261.075c0,0,11.394,3.354,15.677,3.665c5.601,0.408,6.924,7.024,6.924,7.024h-38.076
				c0,0-1.813-3.905-1.212-7.908c7.177-1.196,15.669-2.781,15.669-2.781"/>
			<polyline fill="#FFC5A8" points="54.137,67.641 57.531,40.771 73.277,22.034 64.861,75.514 			"/>
			<g>
				<path fill="#FFC5A8" d="M92.315,33.19c0,0-2.458,34.35-17.205,34.35c-9.265,0-15.574-5.883-15.574-16.269L60.99,33.19"/>
				<path fill="#243547" d="M64.368,33.19c0,0,20.641,7.466,28.984,0c8.344-7.467-3.82-15.81-16.951-15.81
					c-13.131,0-16.865,5.929-16.865,5.929L64.368,33.19z"/>
				<path fill="#243547" d="M59.536,23.309c0,0-5.049,0.219-6.807,4.611c-1.755,4.393-0.584,22.937,2.93,27.329
					c0.541-4.593,4.714-13.373,7.726-15.97c3.037-2.619,4.992-2.179,6.742,2.78c-1-6.216-0.488-8.869-0.488-8.869L59.536,23.309z"/>
			</g>
			<path fill="#243547" d="M63.384,39.279c0,0-3.157,4.945,0.323,13.653c-5.188,1-8.048,2.316-8.048,2.316s-2.527-4.833,0-8.741
				S63.384,39.279,63.384,39.279z"/>
			<path fill="#16A085" d="M39.069,149.906c0,0-4.615-45.07,0-67.332c4.616-22.26,31.222-21.174,35.022,0
				c3.801,21.176-5.974,35.839-5.43,44.525c0.543,8.687,2.561,22.807,2.561,22.807H39.069z"/>
			<path fill="#16A085" d="M142.297,111.079c0,0-47.068-3.836-65.78-26.241c-15.068-18.043-27.416,0.041-12.126,12.195
				c15.857,12.604,42.052,21.829,77.685,20.834C142.125,116.326,142.297,111.079,142.297,111.079z"/>
			<path fill="#FFC5A8" d="M142.076,117.867c0,0,8.18,0.933,9.119-0.746c0.347-0.448-0.361-0.804-0.911-0.905
				c1.117-0.339,1.45-0.369,1.469-0.953c0.019-0.583-1.523-0.8-1.523-0.8s1.994-0.103,1.97-1.021
				c-0.025-0.917-1.688-0.847-1.688-0.847s1.773-0.024,1.743-0.818c-0.03-0.793-0.75-0.816-1.468-0.84
				c-0.718-0.023-4.667,0.64-4.667,0.64s2.191-1.013,3.415-1.223c1.224-0.211,1.326-1.624-1.121-1.245
				c-2.447,0.378-6.127,2.259-6.127,2.259L142.076,117.867z"/>
		</g>
	</g>
	<g>
		<g>
			<rect x="561.127" y="190.061" fill="#F9FDFF" width="9.395" height="66.481"/>
			<polygon fill="#F9FDFF" points="599.065,270.272 603.221,270.272 570.522,256.542 564.741,263.409 			"/>
			<polygon fill="#F9FDFF" points="534.188,270.272 528.407,270.272 561.104,256.542 566.887,263.409 			"/>
			<rect x="561.127" y="256.542" fill="#F9FDFF" width="9.395" height="5.895"/>
			<polygon fill="#F9FDFF" points="563.747,274.519 567.86,274.519 569.631,254.624 562.016,254.624 			"/>
			<rect x="599.065" y="270.272" fill="#F9FDFF" width="4.156" height="4.247"/>
			<rect x="528.407" y="270.272" fill="#F9FDFF" width="4.154" height="4.247"/>
			<g>
				<polygon fill="#273244" points="636.083,94.386 603.081,194.758 532.561,194.758 532.561,183.784 593.731,183.784 
					624.397,95.503 				"/>
				<polygon fill="#041728" points="599.829,190.061 631.491,94.825 636.083,94.386 603.081,194.758 532.561,194.758 
					532.561,190.061 				"/>
			</g>
			<rect x="553.45" y="194.67" fill="#65859E" width="24.75" height="5.057"/>
			<circle fill="#231F20" cx="601.143" cy="274.932" r="2.6"/>
			<circle fill="#231F20" cx="565.824" cy="274.932" r="2.599"/>
			<circle fill="#231F20" cx="530.484" cy="274.932" r="2.599"/>
		</g>
		<g>
			<path fill="#2D3E50" d="M458.963,261.075l32.387-97.657c2.404-3.685,6.516-5.911,10.914-5.911c0,0,18.471-1.772,43.439-2.443
				c10.045-0.271,18.312-4.448,19.156-5.157h32.154c-0.041,0.245,1.787,33.664-39.398,33.664c-16.945,0-38.986,0-48.291,0
				l-33.676,80.286L458.963,261.075z"/>
			<path fill="#231F20" d="M458.963,261.075c0,0-11.395,3.354-15.678,3.665c-5.6,0.408-6.924,7.024-6.924,7.024h38.076
				c0,0,1.812-3.905,1.211-7.908c-7.176-1.196-15.668-2.781-15.668-2.781"/>
			<polyline fill="#FFC5A8" points="581.946,67.641 578.553,40.771 562.805,22.034 571.221,75.514 			"/>
			<g>
				<path fill="#FFC5A8" d="M543.768,33.19c0,0,2.459,34.35,17.205,34.35c9.266,0,15.574-5.883,15.574-16.269l-1.455-18.081"/>
				<path fill="#231F20" d="M571.715,33.19c0,0-20.641,7.466-28.984,0c-8.344-7.467,3.82-15.81,16.951-15.81
					s16.865,5.929,16.865,5.929L571.715,33.19z"/>
				<path fill="#231F20" d="M576.547,23.309c0,0-1.676-7.584-8.676-8.834s-21.582,4.958-33.482-4.035
					c-1.6,18.827,4.732,25.228,17.482,26.069"/>
				<path fill="#231F20" d="M576.547,23.309c0,0,5.049,0.219,6.807,4.611c1.756,4.393,0.584,22.937-2.93,27.329
					c-0.541-4.593-4.713-13.373-7.725-15.97c-3.037-2.619-4.992-2.179-6.742,2.78c1-6.216,0.488-8.869,0.488-8.869L576.547,23.309z"
					/>
			</g>
			<path fill="#231F20" d="M572.7,39.279c0,0,3.156,4.945-0.324,13.653c5.189,1,8.049,2.316,8.049,2.316s2.527-4.833,0-8.741
				S572.7,39.279,572.7,39.279z"/>
			<path fill="#34495E" d="M597.014,149.906c0,0,4.615-45.07,0-67.332c-4.615-22.26-31.223-21.174-35.023,0
				c-3.801,21.176,5.975,35.839,5.43,44.525c-0.543,8.687-2.561,22.807-2.561,22.807H597.014z"/>
			<path fill="#34495E" d="M493.786,111.079c0,0,47.068-3.836,65.781-26.241c15.068-18.043,27.416,0.041,12.125,12.195
				c-15.857,12.604-42.051,21.829-77.684,20.834C493.958,116.326,493.786,111.079,493.786,111.079z"/>
			<path fill="#FFC5A8" d="M494.008,117.867c0,0-8.18,0.933-9.119-0.746c-0.348-0.448,0.361-0.804,0.91-0.905
				c-1.117-0.339-1.451-0.369-1.469-0.953c-0.02-0.583,1.521-0.8,1.521-0.8s-1.994-0.103-1.969-1.021
				c0.025-0.917,1.688-0.847,1.688-0.847s-1.773-0.024-1.742-0.818c0.029-0.793,0.748-0.816,1.467-0.84s4.668,0.64,4.668,0.64
				s-2.191-1.013-3.416-1.223c-1.223-0.211-1.324-1.624,1.121-1.245c2.447,0.378,6.127,2.259,6.127,2.259L494.008,117.867z"/>
		</g>
	</g>
	<g>
		<rect x="99.86" y="118.921" fill="#F9FDFF" width="13.066" height="160.553"/>
		<rect x="529.69" y="118.921" fill="#F9FDFF" width="13.066" height="160.553"/>
		<rect x="99.86" y="118.921" fill="#C4996C" width="442.869" height="11.942"/>
	</g>
	<g>
		<polyline fill="#FFC5A8" points="190.783,81.266 190.783,53.432 202.321,35.141 202.321,86.432 		"/>
		<path fill="#FFFFFF" d="M170.987,69.599c0,0-29.783,42.875-15.783,48.969c20.96,0,35.579,0,35.579,0l-2.328-6.288
			c0,0-21.692-0.455-24.022-4.181c-2.33-3.728,18.433-26.562,18.433-26.562"/>
		<path fill="#FFFFFF" d="M219.821,71.599c0,0,23.16,40.875,9.16,46.969c-20.96,0-35.578,0-35.578,0l2.328-6.288
			c0,0,22.927,0.045,25.257-3.681c2.33-3.728-19.667-27.062-19.667-27.062"/>
		<g>
			<path fill="#FFC5A8" d="M213.463,46.912c0,9.244-7.494,16.738-16.738,16.738l0,0c-9.245,0-16.738-7.494-16.738-16.738V36.171
				c0-9.245,7.494-16.738,16.738-16.738l0,0c9.244,0,16.738,7.494,16.738,16.738V46.912z"/>
		</g>
		<path fill="#FFFFFF" d="M172.425,118.921l-1.438-50.749c0,0,6-2.231,19.796-2.51l6.204,8.672l5.167-8.672
			c6.667,0.278,17.667,3.784,17.667,3.784l-4.656,49.475H172.425z"/>
		<path fill="#784E26" d="M182.379,46.252c0,0-5.706-2.71-7.17-8.83c-2.076-8.675,0.225-17.025,4.744-16.262
			c2.212,3.905,3.454,4.799,3.454,4.799S181.505,42.204,182.379,46.252z"/>
		<path fill="#784E26" d="M183.807,26.153c0,0,5.898,4.516,17.235,4.516c11.337,0,19.393-10.451,16.888-19.285
			c-3.651,3.267-11.514,3.913-18.087,1.606c-6.573-2.306-13.41-2.306-17.678,1.154C177.896,17.602,179.466,23.46,183.807,26.153z"/>
		<path fill="#784E26" d="M184.719,26.609c0,0-4.188,7.553-2.842,12.898c-3.268-4.195-4.264-10.292-4.264-10.292l2.503-7.77
			L184.719,26.609z"/>
		<path fill="#784E26" d="M208.058,26.367c0,0,4.861,1.81,4.428,9.674c4.791-5.483,2.437-12.011,2.437-12.011l-2.263-2.827
			L208.058,26.367z"/>
	</g>
	<g>
		<polyline fill="#FFC5A8" points="371.5,81.266 371.5,53.432 383.038,35.141 383.038,86.432 		"/>
		<path fill="#FFFFFF" d="M351.706,69.599c0,0-29.783,42.875-15.783,48.969c20.961,0,35.578,0,35.578,0l-2.328-6.288
			c0,0-21.691-0.455-24.021-4.181c-2.33-3.728,18.432-26.562,18.432-26.562"/>
		<path fill="#FFFFFF" d="M400.538,71.599c0,0,23.16,40.875,9.16,46.969c-20.959,0-35.578,0-35.578,0l2.328-6.288
			c0,0,22.928,0.045,25.258-3.681c2.328-3.728-19.668-27.062-19.668-27.062"/>
		<g>
			<path fill="#FFC5A8" d="M394.18,46.912c0,9.244-7.492,16.738-16.736,16.738l0,0c-9.246,0-16.738-7.494-16.738-16.738V36.171
				c0-9.245,7.492-16.738,16.738-16.738l0,0c9.244,0,16.736,7.494,16.736,16.738V46.912z"/>
		</g>
		<path fill="#A25016" d="M361.649,37.917c0,0,28.922,0,28.643-14.207c-0.275-14.206-16.342-13.479-24.406-7.693
			C357.821,21.805,352.471,36.866,361.649,37.917z"/>
		
			<ellipse transform="matrix(0.8816 0.472 -0.472 0.8816 51.129 -182.9653)" fill="#A25016" cx="390.293" cy="10.439" rx="11.414" ry="10.14"/>
		<path fill="#A25016" d="M385.555,28.544c0,0,6.666,2.759,8.699,10.564c3.367-4.028,6.951-9.677,3.451-16.177
			c-2.414-4.48-7.271-7.723-9.887-5.611C387.819,23.099,385.555,28.544,385.555,28.544z"/>
		<path fill="#FFFFFF" d="M353.143,118.921l-1.438-50.749c0,0,6-2.231,19.795-2.51l6.205,8.672l5.166-8.672
			c6.666,0.278,17.666,3.784,17.666,3.784l-4.656,49.475H353.143z"/>
	</g>
	<path fill="#231F20" d="M258.696,44.399c0,0,1.334-8.003,11.521-8.974s17.947-5.214,20.251-10.065
		c5.942,4.002,12.006,8.852,12.491,19.039c4.487-6.913,6.498-24.663-8.539-27.816c-13.341-13.34-27.855-7.748-34.875,1.138
		C249.137,30.892,258.696,44.399,258.696,44.399z"/>
	<g id="Mac_Book">
		<rect x="238.647" y="70.21" fill="#7AC943" width="50.616" height="37.144"/>
		<g>
			<path fill="#481D0E" d="M293.879,71.578c0-1.479-1.199-2.678-2.678-2.678h-49.503c-1.479,0-2.678,1.198-2.678,2.678v37.609
				c0,1.479,1.199,2.678,2.678,2.678h49.503c1.479,0,2.678-1.199,2.678-2.678V71.578z M266.507,71.148
				c0.249,0,0.45,0.201,0.45,0.449c0,0.249-0.201,0.45-0.45,0.45c-0.249,0-0.45-0.201-0.45-0.45
				C266.058,71.349,266.258,71.148,266.507,71.148z M288.539,106.888h-46.057V73.754h46.057V106.888z"/>
			<path fill="#EEEBDD" d="M227.432,114.535v2.056c0,1.479,1.254,2.678,2.733,2.678h68.656c1.479,0,2.647-1.199,2.647-2.678v-2.056
				H227.432z"/>
			<polygon fill="#D8D1B6" points="301.499,114.535 227.487,114.535 237.065,107.981 291.921,107.981 			"/>
		</g>
	</g>
	<g>
		<g>
			<g>
				<polyline fill="#FFC5A8" points="273.897,90.456 273.897,57.108 287.521,35.194 287.521,96.645 				"/>
				<g>
					<path fill="#FFC5A8" d="M301.07,49.297c0,11.076-8.978,20.053-20.053,20.053l0,0c-11.075,0-20.054-8.977-20.054-20.053V36.429
						c0-11.076,8.979-20.053,20.054-20.053l0,0c11.075,0,20.053,8.977,20.053,20.053V49.297z"/>
				</g>
				<path fill="#414042" d="M251.904,135.569l0.759-61.506c0,0,4.707-1.967,21.235-2.303l7.434,10.391l6.189-10.391
					c7.988,0.336,18.517,3.738,18.517,3.738l-2.929,60.07H251.904z"/>
			</g>
			<ellipse fill="#231F20" cx="280.809" cy="39.303" rx="25.307" ry="26.617"/>
			<polygon fill="#414042" points="287.521,71.76 287.521,70.182 273.897,70.182 273.897,71.76 281.018,83.846 			"/>
			<path fill="#414042" d="M252.56,74.135c0,0-29.783,38.903-15.783,44.433c20.96,0,35.579,0,35.579,0l-2.328-5.707
				c0,0-21.693-0.413-24.022-3.791c-2.33-3.384,18.433-24.103,18.433-24.103"/>
			<path fill="#414042" d="M306.037,75.499c0,0,29.247,37.54,15.247,43.069c-20.96,0-35.58,0-35.58,0l2.328-5.707
				c0,0,21.693-0.413,24.022-3.791c2.329-3.384-18.433-24.103-18.433-24.103"/>
			<path fill="#231F20" d="M255.502,39.303c0,0,0.847,25.344-2.807,28.237s33.38,12.729,53.53,1.811c0,0-2.368-13.844-0.109-30.047
				C306.116,39.303,262.629,28.173,255.502,39.303z"/>
		</g>
		<g>
			<g>
				<path fill="#231F20" d="M303.778,271.901c0,0,9.604,3.405,13.214,3.722c4.721,0.414,5.836,7.133,5.836,7.133h-32.094
					c0,0-1.528-3.966-1.022-8.031c6.051-1.215,13.209-2.823,13.209-2.823"/>
				<path fill="#231F20" d="M255.99,271.901c0,0-9.604,3.405-13.213,3.722c-4.721,0.414-5.836,7.133-5.836,7.133h32.094
					c0,0,1.527-3.966,1.021-8.031c-6.049-1.215-13.208-2.823-13.208-2.823"/>
				<path fill="#2D3E50" d="M270.165,275.002c0,0,8.838-93.529,8.838-94.321c0-0.793-1.3-14.796-13.256-14.796
					c-11.956,0-15.335,7.927-15.335,16.646s4.419,92.472,4.419,92.472H270.165z"/>
				<path fill="#2D3E50" d="M304.741,275.002c0,0,8.79-93.529,8.79-94.321c0-0.793-1.293-14.796-13.184-14.796
					c-11.89,0-15.251,7.927-15.251,16.646s4.395,92.472,4.395,92.472H304.741z"/>
			</g>
			<g>
				<g>
					<rect x="274.854" y="207.75" fill="#E6E7E8" width="10.045" height="72.398"/>
					<polygon fill="#E6E7E8" points="244.336,295.098 239.894,295.098 274.854,280.148 281.037,287.625 					"/>
					<polygon fill="#E6E7E8" points="313.703,295.098 319.885,295.098 284.923,280.148 278.741,287.625 					"/>
					<rect x="274.854" y="280.148" fill="#E6E7E8" width="10.045" height="6.418"/>
					<polygon fill="#E6E7E8" points="282.1,299.724 277.701,299.724 275.806,278.057 283.949,278.057 					"/>
					<rect x="239.894" y="295.098" fill="#E6E7E8" width="4.442" height="4.626"/>
					<rect x="315.441" y="295.098" fill="#E6E7E8" width="4.444" height="4.626"/>
					<g>
						<polyline fill="#041728" points="242.615,212.865 317.14,212.865 317.14,207.75 242.615,207.75 						"/>
						<polyline fill="#041728" points="242.615,207.75 317.14,207.75 317.14,97.033 242.615,97.033 						"/>
					</g>
					<rect x="266.646" y="212.768" fill="#65859E" width="26.463" height="5.508"/>
					<ellipse fill="#231F20" cx="241.643" cy="299.792" rx="2.793" ry="2.87"/>
					<ellipse fill="#231F20" cx="279.591" cy="299.792" rx="2.792" ry="2.87"/>
					<ellipse fill="#231F20" cx="317.561" cy="299.792" rx="2.793" ry="2.87"/>
				</g>
			</g>
		</g>
	</g>
	<path fill="#D1D3D4" d="M223.695,118.331c0,0.553-0.448,1-1,1h-63.761c-0.552,0-1-0.447-1-1V78.826c0-0.553,0.448-1,1-1h63.761
		c0.552,0,1,0.447,1,1V118.331z"/>
	<path fill="#D1D3D4" d="M407.777,118.331c0,0.553-0.448,1-1,1h-63.761c-0.553,0-1-0.447-1-1V78.826c0-0.553,0.447-1,1-1h63.761
		c0.552,0,1,0.447,1,1V118.331z"/>
	<g>
		<path fill-rule="evenodd" clip-rule="evenodd" fill="#FFFFFF" d="M195.089,98.513c-1.006,0.627-1.5,1.511-1.42,2.686
			c0.08,1.172,0.713,1.964,1.748,2.483c-0.054,0.146-0.106,0.301-0.166,0.452c-0.348,0.883-0.854,1.668-1.493,2.367
			c-0.262,0.286-0.571,0.51-0.96,0.599c-0.292,0.067-0.579,0.033-0.857-0.055c-0.25-0.079-0.495-0.177-0.742-0.267
			c-0.64-0.232-1.271-0.188-1.9,0.055c-0.259,0.101-0.521,0.196-0.789,0.27c-0.445,0.122-0.849,0.01-1.213-0.263
			c-0.275-0.206-0.505-0.456-0.721-0.722c-0.788-0.974-1.325-2.071-1.623-3.287c-0.155-0.631-0.23-1.271-0.205-1.921
			c0.032-0.81,0.229-1.57,0.692-2.246c0.521-0.761,1.234-1.229,2.146-1.385c0.433-0.074,0.851-0.017,1.262,0.124
			c0.311,0.107,0.622,0.217,0.93,0.334c0.254,0.096,0.498,0.096,0.754-0.003c0.361-0.139,0.728-0.263,1.095-0.382
			c0.296-0.095,0.602-0.156,0.914-0.142c0.821,0.036,1.565,0.278,2.166,0.867C194.844,98.21,194.959,98.363,195.089,98.513z"/>
		<path fill-rule="evenodd" clip-rule="evenodd" fill="#FFFFFF" d="M192.689,94.06c0,0.184,0.018,0.364-0.003,0.54
			c-0.109,0.897-0.559,1.597-1.285,2.12c-0.375,0.27-0.802,0.386-1.265,0.359c-0.015,0-0.031-0.002-0.046-0.003
			c-0.006-0.002-0.012-0.005-0.021-0.008c0-0.167-0.021-0.338,0.003-0.502c0.166-1.108,0.799-1.857,1.808-2.307
			c0.231-0.104,0.475-0.17,0.727-0.196C192.632,94.061,192.659,94.061,192.689,94.06z"/>
	</g>
	<g>
		<path fill-rule="evenodd" clip-rule="evenodd" fill="#FFFFFF" d="M382.278,98.513c-1.006,0.627-1.5,1.511-1.42,2.686
			c0.08,1.172,0.713,1.964,1.748,2.483c-0.055,0.146-0.106,0.301-0.166,0.452c-0.348,0.883-0.854,1.668-1.492,2.367
			c-0.262,0.286-0.571,0.51-0.961,0.599c-0.292,0.067-0.578,0.033-0.857-0.055c-0.25-0.079-0.494-0.177-0.742-0.267
			c-0.64-0.232-1.271-0.188-1.899,0.055c-0.259,0.101-0.521,0.196-0.789,0.27c-0.445,0.122-0.849,0.01-1.213-0.263
			c-0.275-0.206-0.505-0.456-0.721-0.722c-0.788-0.974-1.325-2.071-1.622-3.287c-0.155-0.631-0.23-1.271-0.205-1.921
			c0.032-0.81,0.229-1.57,0.692-2.246c0.521-0.761,1.233-1.229,2.146-1.385c0.433-0.074,0.851-0.017,1.262,0.124
			c0.311,0.107,0.622,0.217,0.93,0.334c0.254,0.096,0.498,0.096,0.755-0.003c0.36-0.139,0.727-0.263,1.095-0.382
			c0.296-0.095,0.603-0.156,0.914-0.142c0.821,0.036,1.565,0.278,2.166,0.867C382.033,98.21,382.147,98.363,382.278,98.513z"/>
		<path fill-rule="evenodd" clip-rule="evenodd" fill="#FFFFFF" d="M379.877,94.06c0,0.184,0.018,0.364-0.004,0.54
			c-0.109,0.897-0.559,1.597-1.284,2.12c-0.374,0.27-0.802,0.386-1.265,0.359c-0.016,0-0.031-0.002-0.047-0.003
			c-0.006-0.002-0.012-0.005-0.021-0.008c0-0.167-0.021-0.338,0.004-0.502c0.166-1.108,0.799-1.857,1.808-2.307
			c0.231-0.104,0.475-0.17,0.728-0.196C379.821,94.061,379.847,94.061,379.877,94.06z"/>
	</g>
	<g>
		<g>
			<g>
				<polyline fill="#FFC5A8" points="436.608,90.456 436.608,57.108 450.231,35.194 450.231,96.645 				"/>
				<g>
					<path fill="#FFC5A8" d="M463.782,49.297c0,11.076-8.979,20.053-20.053,20.053l0,0c-11.076,0-20.055-8.977-20.055-20.053V36.429
						c0-11.076,8.979-20.053,20.055-20.053l0,0c11.074,0,20.053,8.977,20.053,20.053V49.297z"/>
				</g>
				<path fill="#243547" d="M424.805,38.522c0,0,34.65,0,34.316-17.021c-0.33-17.021-19.578-16.15-29.24-9.217
					C420.221,19.218,413.809,37.261,424.805,38.522z"/>
				<path fill="#243547" d="M453.448,30.78c0,0,7.506,4.116,9.797,15.759c3.793-6.009,7.828-14.436,3.887-24.13
					c-2.719-6.683-8.189-11.52-11.135-8.37C455.997,22.658,453.448,30.78,453.448,30.78z"/>
				<path fill="#F7941E" d="M414.614,135.569l0.76-61.506c0,0,4.707-1.967,21.234-2.303l7.434,10.391l6.189-10.391
					c7.988,0.336,18.518,3.738,18.518,3.738l-2.93,60.07H414.614z"/>
			</g>
			<ellipse fill="#243547" cx="443.52" cy="39.303" rx="25.307" ry="26.617"/>
			<polygon fill="#F7941E" points="450.231,71.76 450.231,70.182 436.608,70.182 436.608,71.76 443.729,83.846 			"/>
			<path fill="#F7941E" d="M415.27,74.135c0,0-29.781,38.903-15.781,44.433c20.959,0,35.578,0,35.578,0l-2.328-5.707
				c0,0-21.693-0.413-24.021-3.791c-2.33-3.384,18.432-24.103,18.432-24.103"/>
			<path fill="#F7941E" d="M468.749,75.499c0,0,29.246,37.54,15.246,43.069c-20.961,0-35.58,0-35.58,0l2.328-5.707
				c0,0,21.693-0.413,24.023-3.791c2.328-3.384-18.434-24.103-18.434-24.103"/>
		</g>
		<g>
			<g>
				<path fill="#231F20" d="M466.489,271.901c0,0,9.604,3.405,13.215,3.722c4.721,0.414,5.836,7.133,5.836,7.133h-32.094
					c0,0-1.529-3.966-1.023-8.031c6.051-1.215,13.209-2.823,13.209-2.823"/>
				<path fill="#231F20" d="M418.7,271.901c0,0-9.604,3.405-13.213,3.722c-4.721,0.414-5.836,7.133-5.836,7.133h32.094
					c0,0,1.527-3.966,1.021-8.031c-6.049-1.215-13.207-2.823-13.207-2.823"/>
				<path fill="#2D3E50" d="M432.875,275.002c0,0,8.838-93.529,8.838-94.321c0-0.793-1.299-14.796-13.256-14.796
					c-11.955,0-15.336,7.927-15.336,16.646s4.42,92.472,4.42,92.472H432.875z"/>
				<path fill="#2D3E50" d="M467.452,275.002c0,0,8.791-93.529,8.791-94.321c0-0.793-1.293-14.796-13.184-14.796
					s-15.252,7.927-15.252,16.646s4.395,92.472,4.395,92.472H467.452z"/>
			</g>
			<g>
				<g>
					<rect x="437.565" y="207.75" fill="#E6E7E8" width="10.045" height="72.398"/>
					<polygon fill="#E6E7E8" points="407.047,295.098 402.604,295.098 437.565,280.148 443.749,287.625 					"/>
					<polygon fill="#E6E7E8" points="476.415,295.098 482.596,295.098 447.633,280.148 441.452,287.625 					"/>
					<rect x="437.565" y="280.148" fill="#E6E7E8" width="10.045" height="6.418"/>
					<polygon fill="#E6E7E8" points="444.811,299.724 440.413,299.724 438.516,278.057 446.661,278.057 					"/>
					<rect x="402.604" y="295.098" fill="#E6E7E8" width="4.443" height="4.626"/>
					<rect x="478.153" y="295.098" fill="#E6E7E8" width="4.443" height="4.626"/>
					<g>
						<polyline fill="#041728" points="405.327,212.865 479.85,212.865 479.85,207.75 405.327,207.75 						"/>
						<polyline fill="#041728" points="405.327,207.75 479.85,207.75 479.85,97.033 405.327,97.033 						"/>
					</g>
					<rect x="429.356" y="212.768" fill="#65859E" width="26.463" height="5.508"/>
					<ellipse fill="#231F20" cx="404.354" cy="299.792" rx="2.793" ry="2.87"/>
					<path fill="#231F20" d="M445.094,299.792c0-1.586-1.248-2.87-2.793-2.87c-1.541,0-2.791,1.284-2.791,2.87s1.25,2.87,2.791,2.87
						C443.846,302.662,445.094,301.377,445.094,299.792z"/>
					<ellipse fill="#231F20" cx="480.272" cy="299.792" rx="2.793" ry="2.87"/>
				</g>
			</g>
		</g>
	</g>
</g>
</svg>
